<svg xmlns="http://www.w3.org/2000/svg" width="64" height="64" viewBox="0 0 24 24" fill="none">
    
  <defs>
    <linearGradient id="premium-gradient" x1="0%" y1="0%" x2="100%" y2="100%">
      <stop offset="0%" stop-color="#06b6d4" /> <!-- Cyan-500 -->
      <stop offset="100%" stop-color="#8b5cf6" /> <!-- Violet-500 -->
    </linearGradient>
    <linearGradient id="bg-gradient" x1="0%" y1="0%" x2="100%" y2="100%">
      <stop offset="0%" stop-color="#1e293b" stop-opacity="0.8"/> 
      <stop offset="100%" stop-color="#0f172a" stop-opacity="0.8"/>
    </linearGradient>
    <filter id="glow" x="-20%" y="-20%" width="140%" height="140%">
      <feGaussianBlur stdDeviation="4" result="blur" />
      <feComposite in="SourceGraphic" in2="blur" operator="over" />
    </filter>
  </defs>

    <rect width="24" height="24" rx="6" fill="url(#bg-gradient)" stroke="#334155" stroke-width="0.5"/><path d="M12 2C8.13 2 5 5.13 5 9c0 2.38 1.19 4.47 3 5.74V17c0 .55.45 1 1 1h6c.55 0 1-.45 1-1v-2.26c1.81-1.27 3-3.36 3-5.74 0-3.87-3.13-7-7-7zm-1 19h2v2h-2v-2z" fill="url(#premium-gradient)" filter="url(#glow)"/>
  </svg>