<?xml version="1.0" standalone="no"?>
<!DOCTYPE svg PUBLIC "-//W3C//DTD SVG 20010904//EN"
 "http://www.w3.org/TR/2001/REC-SVG-20010904/DTD/svg10.dtd">
<svg version="1.0" xmlns="http://www.w3.org/2000/svg"
 width="600.000000pt" height="600.000000pt" viewBox="0 0 600.000000 600.000000"
 preserveAspectRatio="xMidYMid meet">
<g transform="translate(0.000000,600.000000) scale(0.050000,-0.050000)"
fill="#008cb4" stroke="none">
<path d="M5267 11119 c-192 -24 -551 -97 -577 -118 -11 -10 -65 -23 -120 -31
-101 -13 -389 -94 -500 -141 -33 -13 -82 -31 -110 -39 -27 -9 -95 -39 -150
-67 -139 -73 -144 -74 -110 -32 17 21 -15 6 -70 -34 -210 -152 -668 -897 -552
-897 18 0 3 -122 -18 -150 -37 -50 33 -370 81 -370 11 0 6 21 -10 46 -74 113
-27 588 61 622 15 6 28 35 28 65 0 65 42 187 64 187 20 0 21 8 -13 -105 -16
-53 -24 -109 -18 -125 6 -17 0 -30 -13 -30 -19 0 -19 -7 -2 -28 14 -17 16 -31
4 -35 -12 -4 -12 -40 1 -97 11 -49 21 -108 22 -130 1 -22 12 -46 23 -54 12 -8
13 -21 4 -30 -10 -9 -21 -5 -26 9 -5 14 -23 25 -39 25 -21 0 -26 12 -16 43 9
28 6 38 -9 28 -12 -7 -22 -3 -22 10 0 13 14 18 32 11 23 -9 29 -4 21 16 -6 16
-17 61 -24 101 -20 105 -49 107 -49 4 0 -49 -9 -93 -19 -96 -12 -4 -8 -39 9
-87 15 -44 29 -71 30 -60 1 11 10 4 22 -15 11 -19 15 -44 8 -55 -7 -11 0 -20
14 -20 42 0 156 -114 155 -154 -2 -29 -4 -30 -15 -6 -8 17 -27 30 -42 30 -16
0 -33 13 -38 28 -6 18 0 23 18 13 16 -8 11 0 -11 18 -52 42 -69 39 -57 -9 6
-22 46 -60 88 -84 55 -30 71 -48 53 -60 -18 -11 -19 -20 -3 -31 12 -8 23 -28
24 -45 0 -16 6 -48 13 -70 8 -30 -6 -53 -59 -90 -88 -63 -189 -186 -136 -166
27 10 23 -3 -19 -55 -57 -71 -140 -231 -166 -319 -8 -27 -22 -55 -31 -61 -28
-18 -61 -237 -41 -269 7 -11 14 -33 15 -50 1 -16 3 -46 5 -65 2 -19 17 -35 33
-35 31 0 39 -31 33 -120 l-4 -50 39 45 38 44 0 -44 c1 -113 30 -214 66 -226
22 -6 46 -43 58 -88 11 -41 37 -97 57 -123 30 -38 83 -212 83 -271 0 -6 -28
13 -62 41 -79 67 -175 69 -235 6 -55 -59 -64 -518 -13 -686 16 -54 30 -143 30
-197 1 -532 155 -900 388 -926 95 -11 131 -55 133 -161 1 -67 47 -263 74 -315
11 -22 17 -55 14 -74 -3 -19 3 -30 13 -24 10 6 19 -5 21 -25 6 -66 8 -75 66
-220 31 -80 65 -140 74 -134 9 6 17 -8 17 -31 0 -22 7 -41 16 -41 9 0 43 -42
75 -93 32 -52 69 -104 81 -116 13 -13 38 -51 56 -86 23 -45 42 -60 65 -51 17
7 -19 -55 -81 -137 -84 -111 -132 -156 -187 -175 -152 -53 -586 -252 -965
-444 -214 -108 -450 -215 -523 -237 -73 -23 -185 -65 -250 -93 -64 -29 -166
-68 -227 -86 -442 -139 -796 -693 -909 -1422 -18 -115 -50 -304 -71 -420 -39
-213 -68 -459 -91 -750 -7 -88 -17 -176 -22 -195 -8 -30 5 -35 89 -35 l98 0
14 135 c7 74 36 266 64 425 68 385 87 508 102 645 6 63 19 115 28 115 9 0 12
12 7 26 -40 104 183 857 303 1020 l32 44 -13 -50 c-13 -48 -12 -48 18 -12 24
31 25 45 6 68 -21 25 -18 28 16 17 30 -10 54 1 85 37 24 27 53 50 64 50 11 0
20 19 20 41 0 24 9 36 21 28 12 -7 36 5 55 26 62 70 122 92 109 40 -6 -25 -23
-60 -39 -77 -24 -29 -22 -32 28 -23 52 9 54 8 18 -19 -34 -27 -34 -31 -5 -42
18 -7 33 -4 33 7 0 10 14 19 30 19 36 0 40 33 5 47 -18 7 -18 10 2 11 23 2 23
8 3 32 -21 25 -18 30 13 30 21 0 60 15 88 34 48 33 48 33 19 -5 -16 -21 -41
-46 -55 -55 -19 -12 -20 -27 -4 -56 11 -21 31 -33 42 -26 14 9 13 18 -3 28
-18 11 -18 19 -1 29 12 8 36 4 52 -10 19 -15 29 -16 29 -3 0 12 -9 27 -20 34
-12 7 -7 31 12 61 35 53 74 49 54 -7 -11 -31 -9 -31 26 2 33 31 34 38 8 55
-21 13 -11 15 33 7 48 -9 73 -2 105 30 23 23 64 42 91 42 27 0 54 9 61 20 7
12 21 16 30 10 9 -6 23 -1 30 10 7 11 20 16 29 11 9 -6 28 3 41 19 14 17 35
30 47 30 13 0 10 -9 -7 -20 -18 -12 -20 -20 -6 -20 13 0 29 9 36 20 7 12 21
15 31 9 11 -6 19 3 19 20 0 17 8 31 18 31 10 0 14 -20 9 -45 -10 -44 -9 -44
22 -6 17 21 31 50 31 65 0 14 9 26 20 26 11 0 20 -18 20 -39 0 -21 15 -47 34
-58 23 -13 36 -54 42 -141 5 -67 16 -122 26 -122 17 0 13 95 -11 260 -13 89
44 200 103 200 10 0 41 23 68 52 85 91 392 302 336 231 -26 -33 -57 -61 -68
-62 -11 -1 -41 -33 -68 -71 -26 -39 -55 -70 -65 -70 -9 0 -17 -9 -17 -20 0
-11 27 -20 60 -20 40 0 60 10 60 30 0 17 9 30 20 30 11 0 20 14 20 30 0 17 9
30 20 30 11 0 20 14 20 31 0 16 16 36 35 43 19 6 52 26 73 44 28 23 34 24 22
4 -11 -19 -9 -24 7 -14 13 8 23 24 23 35 0 11 36 55 80 97 44 42 80 73 80 69
0 -18 -212 -364 -265 -434 -32 -41 -60 -95 -63 -120 -2 -26 -13 -60 -23 -76
-10 -16 -20 -42 -22 -59 -7 -52 -129 -427 -160 -491 -16 -33 -30 -91 -33 -130
-2 -38 -20 -86 -39 -108 -19 -21 -35 -58 -35 -82 0 -24 -14 -55 -30 -69 -17
-14 -29 -35 -27 -48 2 -12 -6 -44 -18 -72 -40 -91 -51 -130 -47 -156 2 -15
-19 -66 -48 -115 -28 -49 -46 -89 -38 -89 7 0 2 -14 -12 -30 -19 -23 -19 -30
-1 -30 15 0 13 -11 -8 -31 -20 -21 -31 -68 -31 -133 0 -81 -6 -98 -30 -89 -24
9 -30 -5 -30 -66 0 -43 -8 -101 -19 -128 -15 -39 -12 -52 15 -62 18 -7 26 -7
18 1 -8 8 0 36 17 62 17 27 28 64 25 84 -3 20 6 51 21 69 16 18 21 33 13 33
-8 0 1 24 20 52 19 29 25 47 13 40 -13 -8 -11 22 6 79 32 104 51 134 51 79 0
-20 6 -31 13 -23 7 7 12 58 10 113 -2 55 5 100 15 100 11 0 22 25 26 55 3 30
15 53 27 51 11 -2 23 25 25 59 3 34 13 72 23 84 9 11 28 59 42 104 36 122 105
137 92 20 -9 -93 -53 -213 -77 -213 -9 0 -16 -13 -16 -30 0 -16 -10 -30 -21
-30 -13 0 -16 -17 -9 -40 10 -31 6 -37 -21 -27 -28 11 -30 7 -12 -27 15 -29
14 -50 -5 -78 -14 -21 -41 -87 -61 -148 -19 -60 -43 -115 -52 -121 -9 -5 -20
-42 -24 -80 -4 -39 -13 -79 -19 -90 -6 -10 -18 -50 -26 -88 -8 -38 -22 -83
-31 -100 -9 -17 -31 -103 -50 -191 -19 -88 -41 -169 -50 -180 -8 -11 -25 -78
-37 -150 -12 -72 -34 -191 -49 -266 l-27 -136 72 6 72 6 75 310 c212 873 390
1476 410 1390 5 -22 19 -46 31 -54 15 -9 15 -28 -2 -66 -28 -62 -31 -117 -6
-101 10 6 25 49 33 96 7 47 31 120 51 164 21 43 38 93 38 110 0 18 37 77 82
131 116 142 112 139 149 109 47 -39 91 24 75 105 -9 48 -4 60 31 69 56 15 56
16 -37 127 -56 67 -80 114 -80 158 0 46 -9 62 -35 62 -25 0 -35 -16 -35 -58 0
-32 9 -57 20 -55 11 2 18 -8 15 -22 -3 -14 4 -25 15 -25 11 0 -16 -72 -61
-160 -72 -140 -87 -187 -97 -295 -1 -14 -21 -25 -45 -25 -40 0 -41 7 -27 105
8 58 21 191 30 295 14 183 21 206 204 620 203 459 423 910 453 928 48 30 68
-105 24 -166 -44 -62 -167 -343 -155 -355 4 -3 55 93 113 213 59 121 115 220
124 220 29 0 20 -28 -71 -212 -94 -190 -278 -629 -267 -640 3 -3 51 93 105
214 56 126 108 215 121 210 14 -5 20 11 15 45 -7 53 -7 53 14 5 14 -32 14 -68
1 -110 -11 -34 -26 -140 -32 -236 -9 -128 -19 -171 -38 -164 -24 9 -45 -48
-80 -217 -7 -30 -21 -55 -31 -55 -11 0 -20 -31 -20 -70 0 -49 -9 -70 -30 -70
-21 0 -30 -20 -28 -65 0 -36 6 -53 12 -39 7 20 17 17 36 -10 36 -49 49 -30 71
107 48 301 100 420 131 298 22 -90 45 -21 89 264 21 140 48 291 60 335 18 70
28 128 37 225 3 36 101 31 115 -6 7 -18 25 -26 42 -20 20 8 26 2 18 -19 -18
-46 5 -85 58 -99 27 -6 49 -21 49 -31 0 -11 10 -20 21 -20 31 0 83 -57 71 -77
-6 -9 16 -36 49 -60 49 -37 59 -39 59 -12 0 50 36 14 50 -51 7 -33 21 -55 31
-49 37 22 172 -33 268 -110 55 -43 106 -74 115 -69 9 6 16 3 16 -6 0 -9 32
-37 70 -64 39 -26 70 -59 70 -75 0 -15 9 -27 20 -27 11 0 20 9 20 20 0 12 18
12 51 0 29 -11 76 -19 105 -18 51 1 50 2 -15 26 -52 19 -61 28 -35 38 18 7 58
-1 88 -17 72 -37 106 -37 106 1 0 17 -11 30 -25 30 -18 1 -18 5 -2 15 39 26
58 193 19 179 -23 -9 -32 -1 -32 32 -1 36 -4 38 -20 14 -11 -16 -20 -55 -20
-85 0 -30 -11 -55 -25 -55 -18 -1 -17 -6 3 -18 16 -10 22 -32 15 -51 -20 -54
-53 -15 -53 62 0 53 -7 68 -28 61 -18 -7 -31 6 -37 37 -10 54 3 62 43 24 22
-21 22 -17 0 19 -33 55 -64 50 -81 -14 -12 -50 -12 -49 -15 6 -1 31 -12 75
-23 97 -16 29 -15 47 2 68 18 22 18 29 1 29 -36 0 -51 -61 -25 -102 28 -45 29
-60 4 -53 -10 3 -33 -13 -51 -35 -33 -40 -33 -40 -23 5 5 25 1 40 -9 34 -10
-6 -18 7 -18 30 0 22 -8 41 -17 41 -10 0 -16 36 -13 81 2 44 -2 84 -11 89 -21
14 -38 -39 -26 -84 14 -54 -39 -97 -72 -58 -18 23 -18 40 -1 72 29 54 5 84
-25 31 -21 -39 -22 -39 -39 0 -10 24 -13 -14 -8 -101 l9 -140 -33 130 c-17 72
-39 135 -48 141 -19 13 -13 76 11 114 10 16 4 25 -16 25 -17 0 -31 -9 -31 -20
0 -11 -18 -20 -40 -20 -22 0 -40 9 -40 20 0 46 -34 15 -58 -53 l-27 -73 -26
62 c-18 43 -21 82 -9 123 10 37 10 61 -1 61 -11 0 -19 -11 -20 -25 0 -14 -17
-5 -37 19 -20 24 -42 39 -48 33 -7 -6 -8 30 -3 81 5 50 2 92 -7 92 -8 0 -15
45 -15 100 1 55 -6 100 -14 100 -8 0 -15 -17 -15 -38 0 -52 -51 -89 -105 -75
-44 11 -44 10 -5 -19 22 -17 38 -39 35 -48 -2 -10 17 -35 43 -55 44 -34 46
-45 29 -126 -11 -49 -20 -111 -20 -139 -1 -33 -5 -38 -11 -15 -10 38 -39 47
-49 15 -4 -11 -7 22 -7 73 0 57 -10 97 -25 102 -14 5 -25 19 -25 32 0 13 -31
49 -70 82 -38 32 -70 70 -70 85 0 15 -27 54 -61 87 -65 64 -105 81 -54 24 20
-23 25 -48 14 -75 -12 -29 -17 -32 -18 -8 0 17 -18 48 -40 67 -21 19 -33 48
-27 64 6 17 -7 42 -30 59 -37 26 -41 46 -36 197 3 93 -2 165 -11 159 -10 -6
-17 -30 -17 -55 0 -24 -17 -77 -37 -118 -26 -50 -31 -79 -17 -93 12 -12 16
-27 9 -34 -29 -29 -154 282 -146 365 7 69 1 85 -31 93 -21 6 -38 26 -38 45 0
29 5 30 34 6 56 -44 125 -125 125 -147 0 -11 -13 -3 -29 19 -44 57 -58 24 -21
-48 18 -34 27 -71 21 -81 -7 -11 2 -14 19 -8 17 7 31 2 31 -10 0 -12 10 -22
22 -22 13 0 19 21 13 48 -11 59 57 104 126 82 37 -12 41 -10 19 13 -14 15 -60
26 -104 24 -69 -3 -78 2 -70 35 6 21 2 33 -8 27 -10 -6 -24 3 -30 20 -7 17
-24 31 -38 31 -37 0 -77 53 -51 69 12 8 20 29 20 47 -1 25 -7 22 -20 -11 -10
-25 -34 -45 -53 -45 -28 1 -30 4 -9 18 18 11 22 33 13 62 -11 35 -18 39 -32
18 -13 -22 -17 -22 -18 -2 0 52 -78 114 -105 85 -20 -21 -20 -24 0 -13 17 10
21 4 12 -18 -17 -44 -36 -18 -41 57 -16 224 -22 269 -43 320 -18 43 -34 55
-63 47 -22 -6 -35 -2 -29 8 6 10 1 18 -11 18 -12 0 -17 9 -10 20 7 11 5 20 -4
20 -9 0 -32 74 -52 165 -20 91 -44 197 -54 235 -17 62 -56 366 -62 470 -2 33
-5 31 -16 -10 -8 -27 -8 -86 0 -130 17 -94 6 -115 -33 -61 -65 88 -53 271 18
271 24 0 29 112 32 681 3 626 13 765 57 799 20 14 84 157 84 185 0 12 -13 5
-29 -16 -27 -36 -28 -33 -11 31 l19 70 -40 -47 c-21 -26 -34 -55 -28 -65 6
-10 2 -18 -10 -18 -11 0 -21 -23 -21 -51 0 -29 -9 -46 -20 -39 -11 7 -15 49
-9 96 22 164 28 179 68 168 27 -6 35 -1 27 18 -5 16 -1 28 11 28 12 0 17 13
10 30 -6 16 -19 25 -29 19 -31 -20 -19 107 20 211 26 67 31 100 15 101 -13 0
-8 11 9 25 18 13 39 53 47 88 7 35 26 74 42 87 16 13 24 30 19 38 -5 9 13 36
40 61 43 41 50 42 62 13 7 -18 27 -33 45 -33 29 1 29 3 3 20 -25 17 -25 23 -3
38 21 13 22 21 3 32 -33 20 13 49 79 50 l50 0 -45 -31 c-54 -38 -61 -79 -8
-51 19 10 98 16 174 12 91 -5 129 -1 109 11 -16 10 -24 19 -19 20 80 8 400 6
400 -4 0 -31 77 10 100 54 18 34 35 43 58 32 29 -14 111 -16 197 -3 19 3 4 12
-35 20 l-70 15 90 2 c106 3 169 -25 104 -46 -22 -7 -45 -25 -51 -39 -8 -22 1
-23 49 -5 49 18 63 17 79 -7 16 -27 18 -26 19 0 0 23 4 24 17 4 12 -19 30 -20
71 -5 57 22 126 29 108 10 -14 -13 -87 -31 -179 -43 -65 -9 -133 -86 -75 -86
10 0 18 12 18 26 0 19 34 28 112 30 91 2 110 -3 101 -27 -7 -17 0 -29 18 -29
35 0 39 53 4 67 -19 8 -19 14 3 29 37 27 10 64 -48 64 -25 0 -52 11 -58 25
-10 20 -14 20 -24 0 -6 -14 -24 -25 -40 -25 -24 0 -22 10 6 53 l35 54 -52 -34
c-44 -29 -55 -30 -75 -6 -25 31 23 64 60 42 30 -19 11 39 -22 65 -23 19 -23
25 -4 25 15 1 24 17 21 36 -3 19 2 47 11 62 11 17 7 34 -10 44 -32 20 -66 -50
-48 -98 9 -24 6 -25 -22 -2 -67 56 -111 42 -50 -15 38 -35 38 -36 -10 -36 -36
0 -48 11 -48 45 0 30 -12 45 -35 45 -29 -1 -30 -4 -6 -19 32 -20 -3 -82 -46
-80 -13 0 -6 13 16 30 36 27 36 29 3 29 -24 0 -32 10 -25 30 7 17 2 30 -9 30
-11 0 -16 7 -10 16 5 9 1 29 -10 45 -14 21 -19 10 -17 -41 4 -104 1 -120 -23
-120 -16 0 -15 9 2 30 17 21 18 30 2 30 -12 0 -22 21 -22 48 0 26 -13 58 -30
72 -24 20 -30 19 -30 -6 0 -18 9 -37 20 -44 31 -19 24 -50 -8 -38 -16 6 -39
37 -53 69 -26 63 -59 79 -59 28 0 -18 10 -25 22 -18 16 10 16 3 0 -27 -27 -51
-28 -70 -2 -54 12 7 14 -2 6 -22 -10 -27 -4 -32 28 -24 23 6 54 3 69 -6 19
-12 11 -17 -28 -18 -30 0 -55 -9 -55 -21 0 -14 -13 -14 -40 1 -33 18 -40 15
-41 -14 -1 -30 -5 -28 -19 7 -9 24 -27 49 -39 56 -11 7 -21 31 -21 52 0 22 -9
39 -20 39 -11 0 -20 19 -20 42 0 23 -15 67 -33 98 -30 51 -31 80 -11 265 26
242 70 386 53 175 -11 -129 -11 -130 20 -64 17 37 39 61 51 54 22 -13 22 -12
27 83 2 35 11 71 21 80 11 10 12 7 4 -8 -8 -14 -10 -25 -4 -25 18 0 71 114 60
126 -25 25 66 148 233 315 98 99 179 172 180 164 0 -8 13 1 28 21 15 20 35 36
44 35 23 -3 147 65 147 80 0 6 14 29 30 50 24 31 24 23 -3 -35 -18 -41 -40
-70 -48 -65 -43 26 -579 -446 -579 -509 0 -9 53 34 118 96 262 250 924 658
1091 672 34 3 73 7 87 8 15 1 21 11 14 22 -7 11 -3 20 9 20 11 0 21 -9 21 -20
0 -11 16 -20 35 -21 58 -1 -21 -39 -102 -49 -59 -8 -353 -159 -353 -182 0 -5
34 6 75 24 41 18 116 45 165 61 50 16 113 42 141 57 31 17 82 23 132 16 48 -6
98 -1 120 13 30 19 20 22 -57 13 -74 -9 -92 -5 -84 16 8 20 51 27 159 25 84
-2 152 6 156 17 4 13 24 11 55 -4 26 -12 62 -28 78 -33 32 -10 31 -10 -140
-20 -127 -7 -590 -223 -590 -274 0 -14 -13 -29 -30 -34 -27 -7 -27 -5 0 15 27
20 27 22 0 15 -16 -5 -30 -21 -30 -37 -1 -16 -16 -25 -37 -22 -22 4 -32 -2
-24 -15 8 -12 -3 -21 -24 -21 -63 0 -452 -380 -421 -411 5 -5 35 27 67 71 74
99 123 124 80 41 -17 -31 -41 -61 -55 -66 -15 -5 -17 -12 -4 -20 25 -15 179
176 175 216 -1 16 5 24 15 18 9 -6 46 19 83 56 36 37 179 124 318 195 140 71
249 137 242 148 -6 10 -1 12 11 5 12 -8 106 4 208 25 301 63 423 81 481 69 34
-7 55 -3 55 11 0 25 63 28 158 10 108 -22 71 -55 -48 -42 -60 6 -115 3 -121
-7 -6 -11 23 -20 65 -21 75 -3 75 -3 16 -18 -50 -13 -52 -16 -14 -18 40 -2 43
-7 22 -45 -22 -41 -19 -42 60 -32 45 6 87 3 94 -8 6 -10 28 -13 48 -7 20 6 42
2 49 -9 9 -13 -16 -21 -66 -21 -44 0 -83 -8 -86 -17 -4 -10 -43 -23 -87 -31
-57 -10 -71 -8 -50 7 17 11 53 22 80 23 35 2 39 5 15 12 -54 14 -356 -94 -408
-145 -24 -25 -51 -39 -59 -32 -8 7 -9 -3 -1 -23 7 -20 4 -31 -6 -25 -17 11
-166 -145 -418 -439 -115 -133 -144 -187 -68 -128 32 26 33 25 6 -12 -64 -88
-108 -128 -127 -116 -11 7 -14 3 -7 -9 7 -12 6 -25 -3 -28 -8 -4 -42 -42 -74
-85 l-59 -78 50 16 c27 8 56 28 65 43 9 15 25 23 35 16 10 -6 14 1 9 15 -6 14
43 94 109 176 66 83 140 176 165 208 180 229 528 526 568 486 7 -6 -19 -28
-57 -48 -78 -41 -295 -226 -295 -251 0 -24 159 91 230 167 81 86 280 174 445
196 264 36 500 47 514 24 7 -12 2 -22 -13 -23 -91 -3 -244 -21 -258 -30 -36
-23 -17 -69 27 -68 43 2 43 3 5 19 -36 15 -34 17 14 19 29 0 59 -8 66 -19 7
-12 19 -17 27 -12 7 5 52 1 98 -7 47 -9 85 -9 85 0 0 8 20 10 44 4 79 -21 -17
-42 -204 -44 -93 -2 -206 -16 -250 -32 -44 -15 -95 -29 -113 -29 -17 0 -43
-13 -57 -30 -33 -40 9 -41 84 -2 94 50 595 98 568 56 -13 -23 80 -51 109 -33
10 6 19 6 19 0 0 -38 -110 -49 -207 -22 -56 17 -125 30 -153 29 -287 -6 -296
-71 -12 -78 111 -3 234 -7 272 -10 39 -3 79 2 90 9 11 8 43 8 70 0 28 -9 36
-16 17 -17 -18 -1 -38 -17 -45 -35 -11 -27 -8 -29 18 -7 20 17 30 18 30 2 0
-13 35 -22 83 -22 147 0 69 -20 -150 -40 -199 -17 -417 -69 -516 -121 -29 -16
-38 -17 -28 -1 21 34 -5 27 -157 -45 -78 -37 -162 -74 -187 -82 -25 -7 -45
-22 -45 -32 0 -10 45 -1 100 21 56 22 107 39 115 37 38 -5 85 5 83 18 -7 40 5
45 33 16 25 -24 41 -26 73 -9 192 103 868 112 929 13 8 -14 -5 -16 -39 -8 -77
19 -83 -18 -9 -49 36 -15 72 -25 81 -22 10 3 12 -4 5 -14 -6 -10 3 -33 21 -51
18 -18 29 -37 24 -42 -17 -17 -146 -23 -196 -9 -42 12 -179 4 -410 -25 -84
-10 -551 -222 -525 -238 15 -10 0 -17 -41 -17 -39 0 -61 -8 -54 -20 7 -11 -5
-20 -26 -20 -22 0 -92 -23 -157 -52 -115 -52 -279 -107 -316 -108 -10 0 1 18
25 41 25 23 53 36 64 29 48 -30 532 234 507 275 -9 14 -1 17 21 9 19 -8 29 -5
23 5 -6 9 -4 21 4 26 8 5 2 4 -15 -1 -99 -29 -97 -19 7 36 64 35 113 67 107
73 -5 5 -81 -27 -167 -72 -86 -45 -137 -77 -112 -70 100 26 117 -24 24 -70
l-89 -43 50 42 50 43 -50 -15 c-27 -7 -81 -30 -120 -51 -38 -20 -84 -37 -102
-37 -18 0 -57 -19 -86 -42 -29 -23 -64 -44 -77 -46 -42 -7 -254 -134 -270
-162 -21 -35 -145 -61 -145 -29 0 13 13 18 28 12 16 -6 53 13 82 43 31 30 44
56 31 60 -13 5 -4 24 22 46 24 22 59 34 79 27 19 -6 40 -1 47 10 8 12 2 21
-13 21 -14 0 46 37 134 82 88 46 249 131 358 191 109 59 202 104 207 99 4 -4
-38 -33 -94 -63 -183 -100 -90 -74 117 33 219 113 315 188 151 117 -54 -23
-109 -51 -122 -62 -14 -11 -34 -15 -46 -8 -30 19 -185 -39 -390 -145 -100 -51
-188 -91 -197 -88 -10 3 -12 -3 -7 -12 9 -14 -106 -70 -149 -73 -25 -2 -129
-84 -263 -208 -112 -104 -142 -122 -166 -102 -38 31 -37 37 6 26 24 -6 77 40
174 153 77 89 151 157 165 151 13 -5 70 21 125 58 55 37 145 82 200 101 90 30
151 70 106 70 -22 0 -295 -138 -375 -189 l-60 -39 60 66 c33 36 123 96 201
133 131 63 265 169 213 169 -12 0 -29 -12 -38 -27 -9 -15 -80 -60 -158 -101
-79 -41 -162 -92 -185 -113 -23 -22 -51 -39 -63 -39 -11 0 -99 -76 -194 -170
-189 -186 -189 -186 -175 -135 6 19 0 15 -13 -9 -13 -24 -49 -50 -81 -57 -31
-7 -57 -20 -57 -28 0 -9 -12 -21 -27 -27 -14 -6 -26 0 -27 13 0 13 -7 44 -15
71 -11 32 -8 43 7 33 12 -7 22 -4 22 7 0 12 31 70 70 130 47 75 62 112 45 119
-15 6 -10 11 10 11 19 1 35 11 35 21 0 26 101 174 110 161 14 -20 230 183 217
205 -7 11 -5 16 5 10 10 -6 59 25 108 69 50 45 77 75 60 67 -16 -8 -3 9 30 37
59 51 210 131 396 211 62 26 91 49 82 64 -10 16 -1 20 26 13 25 -7 39 -1 39
17 0 39 -27 33 -75 -15 -23 -23 -101 -59 -173 -79 -140 -40 -376 -173 -475
-266 -33 -31 -47 -50 -32 -42 19 10 23 7 13 -9 -8 -14 -20 -19 -27 -13 -19 19
-105 -74 -135 -145 -16 -37 -37 -62 -47 -55 -23 14 -125 -113 -174 -215 -19
-41 -42 -74 -50 -74 -8 0 -30 -29 -49 -65 -96 -184 -98 -186 -105 -150 -4 19
7 49 25 66 35 36 37 48 13 86 -24 39 -91 12 -119 -47 -12 -28 -31 -50 -42 -50
-26 0 -84 -113 -80 -156 6 -63 -1 -131 -13 -119 -19 20 -15 162 7 215 53 130
90 198 158 290 40 55 68 82 61 60 -9 -28 0 -23 31 18 25 32 103 131 174 220
115 144 120 154 47 92 -44 -38 -128 -110 -186 -159 -129 -109 -329 -370 -313
-409 7 -20 -1 -27 -26 -22 -34 6 -36 -9 -32 -219 5 -243 13 -271 72 -271 61 0
46 -38 -31 -74 -38 -18 -70 -40 -70 -48 0 -8 -38 -12 -85 -8 -47 4 -69 2 -50
-3 20 -6 30 -18 24 -29 -27 -43 142 10 202 65 55 50 85 47 39 -3 -20 -22 -27
-40 -16 -40 34 0 68 53 55 86 -16 40 63 66 102 33 16 -13 25 -29 21 -36 -5 -7
13 -14 38 -16 47 -3 47 -3 -6 43 l-54 46 120 56 c66 31 128 60 138 65 10 4 11
-2 4 -14 -23 -38 43 -26 72 12 32 43 116 92 116 68 0 -10 25 -13 55 -8 l55 9
-44 -32 c-24 -18 -51 -32 -60 -30 -70 12 -96 -3 -57 -33 26 -20 61 -25 106
-17 55 11 83 2 155 -50 47 -34 104 -62 124 -62 21 0 47 -8 57 -17 11 -10 89
-7 179 7 l160 24 -133 8 c-73 4 -130 2 -125 -5 4 -7 -6 -18 -22 -24 -17 -7
-30 -4 -30 6 0 10 -28 24 -62 32 -35 7 -95 32 -135 56 l-71 42 82 23 c45 14
150 31 234 38 84 8 157 23 163 32 17 28 49 21 49 -10 0 -27 67 -59 113 -54 36
4 21 -66 -18 -82 -19 -8 -35 -25 -35 -38 0 -14 18 -11 51 11 45 29 53 30 81 2
17 -17 45 -31 63 -31 17 0 27 -5 21 -10 -12 -13 135 -164 186 -191 46 -25 84
-24 68 1 -7 12 2 14 22 6 25 -9 30 -6 19 13 -12 19 -7 20 25 3 31 -17 42 -15
51 8 7 17 37 30 71 30 33 0 65 9 72 20 20 33 45 23 56 -22 11 -43 68 -43 59 0
-3 12 8 22 25 22 16 0 30 9 30 20 0 11 14 20 30 20 17 0 30 -9 30 -20 0 -11
-13 -20 -30 -20 -43 0 -37 -46 10 -80 22 -16 41 -43 41 -59 1 -22 6 -19 17 8
13 34 16 35 28 5 17 -46 47 -43 60 6 7 26 0 40 -17 40 -33 0 -15 62 25 86 36
22 14 54 -40 56 -36 1 -34 5 16 22 77 28 76 26 60 75 l-13 42 -78 -44 c-42
-24 -73 -50 -68 -59 5 -8 -20 -21 -56 -29 -36 -7 -76 -23 -90 -34 -17 -13 -25
-13 -25 2 0 11 16 30 35 41 27 16 14 21 -61 21 -53 1 -92 -6 -86 -15 5 -9 -19
-16 -54 -15 -39 1 -62 12 -59 27 3 13 -6 24 -19 24 -13 0 -50 25 -82 55 l-59
55 16 -50 c13 -44 11 -47 -18 -22 -18 15 -33 18 -33 7 0 -28 51 -67 67 -51 7
7 13 -2 13 -20 0 -17 16 -41 35 -52 19 -10 29 -25 21 -32 -17 -18 -148 112
-164 164 -7 22 -33 50 -57 62 l-45 21 50 4 c47 3 46 5 -10 17 -33 8 -58 25
-55 38 3 13 -9 24 -25 24 -17 0 -49 19 -72 42 -41 41 -41 42 -1 29 36 -11 83
32 83 77 0 19 -123 -33 -132 -57 -6 -14 -57 -25 -123 -26 -125 -4 -116 18 22
56 43 12 103 49 134 83 30 33 63 56 74 49 10 -6 43 2 74 18 30 16 64 29 74 29
11 0 41 25 67 55 27 30 49 43 49 29 1 -15 10 -21 21 -14 12 7 15 21 9 31 -6
11 2 19 19 19 35 0 208 93 248 133 43 43 51 31 16 -23 -31 -47 -31 -50 6 -50
22 0 45 8 51 19 7 10 84 25 172 32 88 8 165 22 171 33 13 20 179 1 233 -27 71
-37 30 -50 -165 -53 -198 -3 -428 -54 -617 -136 -38 -16 -72 -26 -76 -22 -9
10 70 65 114 79 16 5 2 6 -30 2 -32 -4 -64 -15 -70 -25 -6 -9 -60 -47 -121
-83 -168 -101 -260 -221 -199 -260 46 -29 75 -22 89 21 7 22 20 40 29 40 17 0
47 77 43 106 -2 10 5 12 15 6 9 -6 38 12 64 39 28 30 60 45 81 38 19 -6 41 -1
48 12 8 12 25 17 39 12 32 -12 406 35 424 53 8 8 -8 15 -35 16 -26 2 47 14
162 28 121 15 213 18 217 8 3 -10 17 -18 30 -18 14 0 26 -19 28 -42 2 -33 -3
-37 -26 -17 -32 27 -62 -19 -43 -68 8 -21 -7 -24 -73 -11 -107 21 -158 22
-146 3 5 -8 -15 -16 -44 -17 -29 -1 -161 -8 -293 -16 -171 -11 -231 -9 -210 6
42 30 17 27 -67 -8 -40 -17 -80 -29 -88 -27 -8 1 -25 -17 -37 -40 -12 -24 -35
-59 -52 -78 -63 -73 -62 -85 8 -72 96 18 122 44 85 81 -35 35 -30 69 12 83 24
8 25 4 3 -22 -27 -33 16 -75 75 -75 36 0 23 40 -14 42 -69 5 87 33 195 36 61
1 160 16 220 32 129 35 146 36 131 12 -6 -10 -56 -24 -111 -32 -55 -8 -100
-22 -100 -32 0 -25 245 -23 312 3 40 15 59 14 69 -2 10 -17 17 -16 25 4 9 23
14 23 30 -1 11 -15 30 -20 44 -12 14 8 32 4 40 -11 13 -20 23 -19 48 6 33 33
-8 70 -50 44 -10 -6 -29 -5 -42 3 -13 8 -74 14 -135 13 l-111 -2 120 19 c66
11 149 27 185 37 58 15 117 -5 64 -23 -12 -4 3 -28 33 -54 l54 -47 -11 94 c-7
61 -4 88 9 75 11 -11 20 -72 21 -137 l1 -117 25 70 c19 52 26 59 27 27 4 -107
-83 -134 -154 -49 -15 18 -21 21 -14 7 8 -17 -7 -25 -50 -25 -37 0 -57 -8 -50
-20 7 -11 34 -15 61 -8 36 9 49 4 49 -19 0 -17 16 -40 35 -51 19 -10 28 -26
20 -34 -9 -9 -26 -5 -39 8 -18 18 -39 11 -88 -26 -52 -40 -89 -50 -180 -50
-109 0 -113 -2 -81 -37 18 -20 26 -43 18 -51 -8 -9 35 4 95 28 61 23 119 51
129 61 23 23 117 25 103 3 -5 -10 -46 -29 -91 -44 -45 -14 -81 -34 -81 -44 0
-30 104 -60 127 -37 12 12 30 21 41 21 11 0 9 -11 -4 -24 -13 -13 -24 -49 -24
-80 0 -43 -9 -56 -40 -56 -39 0 -39 -2 -8 -51 39 -59 27 -85 -18 -40 -43 43
-48 40 -51 -34 -4 -134 -8 -154 -25 -144 -10 6 -18 51 -18 100 0 66 -8 89 -30
89 -34 0 -40 -31 -10 -50 31 -19 24 -70 -10 -70 -16 0 -30 15 -30 34 0 25 -6
28 -22 12 -24 -24 8 -106 43 -106 10 0 19 -9 19 -20 0 -12 -16 -11 -39 4 -22
14 -46 17 -55 9 -9 -9 0 -25 19 -36 27 -15 31 -28 15 -56 -11 -21 -14 -80 -7
-133 9 -65 7 -90 -8 -81 -12 7 -27 2 -33 -12 -7 -14 -8 7 -2 45 10 78 -15 141
-40 100 -8 -14 -5 -30 6 -38 14 -8 15 -23 3 -43 -15 -23 -22 -24 -36 -3 -9 14
-33 20 -55 13 -37 -12 -37 -11 0 18 25 21 32 43 22 67 -13 34 -15 33 -31 -4
-9 -22 -17 -29 -18 -15 0 14 -14 25 -29 25 -19 0 -25 14 -17 43 7 27 4 39 -10
30 -11 -7 -26 1 -33 19 -20 52 -14 56 28 18 22 -20 40 -48 40 -63 0 -40 40
-33 41 8 1 28 6 26 23 -10 27 -56 64 -59 50 -5 -6 22 -2 40 7 40 21 0 1 60
-30 92 -12 11 -33 17 -46 13 -14 -5 -25 6 -25 23 0 18 11 26 28 20 17 -6 39 7
52 32 14 27 35 39 54 31 22 -8 27 -2 18 20 -6 18 -12 41 -12 51 0 42 -34 13
-56 -49 -27 -73 -168 -104 -150 -33 16 69 -72 168 -115 129 -37 -33 -37 -39
-7 -85 27 -41 28 -52 5 -68 -21 -15 -19 -17 8 -9 28 10 35 0 35 -50 0 -46 -7
-58 -29 -50 -17 6 -35 3 -42 -8 -6 -10 -1 -19 11 -19 12 0 17 -9 10 -20 -7
-11 1 -14 19 -8 23 9 31 -1 31 -39 0 -28 9 -56 20 -63 11 -7 20 -1 20 12 0 14
6 19 12 12 7 -7 7 -27 0 -46 -15 -40 -92 15 -92 65 0 37 -33 34 -48 -5 -17
-44 -16 -48 15 -48 34 0 93 -65 92 -102 0 -20 -6 -18 -21 7 -32 56 -53 41 -47
-34 5 -56 0 -66 -28 -57 -24 8 -22 3 7 -20 25 -20 43 -23 48 -10 26 73 103
-278 122 -554 11 -165 35 -443 53 -617 18 -175 27 -376 22 -448 -7 -79 -4
-120 7 -103 11 19 17 -4 18 -66 0 -51 -8 -99 -18 -105 -10 -6 -13 8 -7 31 10
38 6 40 -32 20 -24 -13 -43 -30 -43 -38 1 -33 37 -68 58 -55 12 7 22 5 22 -6
0 -11 -11 -24 -25 -30 -16 -6 -18 -16 -5 -26 25 -21 34 -132 10 -117 -9 6 -14
-21 -11 -60 3 -38 -2 -70 -12 -70 -9 0 -17 16 -18 35 0 33 -1 33 -21 0 -56
-97 -65 16 -9 124 16 29 21 65 12 79 -12 19 -18 17 -28 -8 -7 -19 -8 -42 -2
-52 6 -10 -3 -18 -20 -18 -33 0 -38 -16 -31 -110 7 -97 39 -146 70 -104 58 81
104 -64 52 -163 -11 -19 -24 -75 -31 -124 -28 -208 -46 -259 -73 -216 -10 15
-12 -18 -5 -78 13 -110 -2 -137 -32 -60 -17 41 -19 42 -19 5 -1 -54 50 -122
64 -86 5 14 9 6 8 -19 -2 -32 -12 -42 -35 -35 -56 18 -83 -38 -68 -140 16
-108 23 -105 61 23 l28 97 -11 -88 c-13 -108 -43 -168 -75 -149 -14 9 -13 1 3
-19 30 -37 -3 -105 -39 -83 -10 6 -18 0 -18 -15 -1 -19 -6 -18 -20 4 -11 17
-20 21 -20 9 0 -12 11 -32 24 -45 13 -13 17 -30 9 -37 -24 -25 -58 28 -66 103
-5 47 -1 69 12 60 12 -7 21 2 21 20 0 18 9 27 20 20 11 -7 20 -10 21 -6 18
109 18 174 1 185 -12 7 -22 -1 -22 -18 0 -17 -9 -31 -19 -31 -11 0 -14 -16 -7
-35 12 -30 9 -31 -19 -9 -28 23 -30 21 -20 -18 8 -33 5 -40 -15 -28 -20 12
-23 7 -13 -19 11 -30 5 -33 -38 -23 -50 13 -50 13 -18 -37 19 -28 41 -51 49
-51 8 0 21 -20 27 -45 23 -84 -88 -116 -134 -39 -28 46 -53 -13 -31 -71 31
-82 -58 -37 -180 91 -60 63 -101 101 -92 84 11 -19 1 -16 -27 8 -56 49 -54 55
12 42 47 -9 49 -8 13 8 -23 10 -82 58 -132 107 -101 100 -156 129 -156 84 0
-44 -27 -35 -89 30 -31 32 -72 57 -93 55 -40 -3 -42 2 66 -121 33 -37 32 -40
-13 -76 -62 -49 -64 -48 -103 35 -19 39 -53 79 -76 87 -23 9 -67 40 -98 69
-51 47 -60 49 -87 22 -22 -23 -38 -25 -56 -11 -20 17 -24 9 -19 -34 6 -45 3
-42 -16 15 -13 39 -35 77 -50 86 -14 9 -26 30 -26 46 0 17 -9 25 -21 17 -14
-8 -14 -21 2 -41 19 -22 17 -28 -9 -28 -17 0 -32 8 -32 18 0 9 -18 22 -40 28
-46 12 -52 -6 -15 -43 20 -20 18 -23 -10 -12 -19 7 -35 21 -35 31 0 10 -9 18
-19 18 -11 0 -17 -31 -14 -69 3 -38 -2 -64 -11 -59 -9 6 -16 0 -16 -12 0 -12
-10 -16 -22 -9 -14 9 -15 18 -2 27 11 6 -1 28 -28 48 -26 20 -48 26 -48 15 0
-12 -14 -21 -32 -21 -20 0 -28 -11 -21 -29 8 -20 1 -25 -20 -17 -27 10 -28 5
-9 -30 30 -56 29 -60 -23 -68 -25 -3 -45 -15 -45 -26 0 -11 -7 -29 -14 -41 -7
-11 -5 -34 5 -50 15 -22 23 -23 35 -5 9 14 56 24 111 23 52 -1 100 3 106 10 7
6 31 1 55 -11 73 -40 152 -40 153 -1 0 33 2 33 27 0 43 -57 72 -41 74 40 1 78
6 74 27 -22 8 -37 22 -53 41 -46 15 6 30 3 34 -7 3 -9 31 -23 61 -31 62 -15
84 112 30 170 -20 21 -20 24 0 13 14 -8 25 -5 25 6 0 11 13 16 29 9 17 -6 29
-26 27 -44 -7 -79 29 -155 85 -180 59 -26 109 -16 88 18 -6 11 -2 19 9 19 11
0 36 -27 55 -59 40 -69 84 -92 115 -60 16 16 6 36 -35 71 -32 28 -52 55 -46
62 6 6 2 30 -10 54 -21 38 -18 38 30 -6 29 -27 53 -60 53 -74 0 -13 11 -28 25
-33 13 -4 25 -25 26 -47 6 -119 10 -132 36 -122 14 6 26 -3 26 -18 0 -18 -13
-24 -35 -17 -49 15 -69 -29 -30 -67 17 -18 32 -23 32 -10 0 39 101 50 152 16
34 -22 48 -24 48 -6 0 18 6 18 23 1 35 -35 4 -90 -43 -75 -25 8 -40 4 -40 -11
0 -23 14 -22 185 14 42 9 55 4 55 -20 0 -22 -11 -28 -35 -18 -33 12 -33 11 0
-22 39 -40 79 -28 62 18 -7 18 1 29 21 29 18 0 32 -11 32 -25 0 -14 14 1 30
32 22 43 24 66 8 97 -15 27 -15 47 -2 60 30 30 67 -2 54 -46 -10 -28 -5 -35
19 -26 17 7 31 29 31 49 0 20 9 42 20 49 29 18 25 -57 -5 -87 -20 -20 -19 -29
5 -44 17 -10 20 -19 8 -19 -12 0 -22 -11 -23 -25 -3 -31 -49 -156 -72 -191
-13 -20 -29 -14 -68 25 -28 29 -56 47 -62 41 -6 -6 0 -21 13 -34 35 -35 29
-54 -14 -42 -21 5 -44 0 -51 -12 -7 -12 -36 -22 -63 -22 -29 0 -45 -9 -38 -20
7 -12 23 -15 34 -7 13 8 16 4 8 -10 -8 -13 -5 -24 7 -26 11 -1 30 -3 40 -4 10
-2 29 -13 42 -26 42 -42 -141 -19 -231 30 -11 6 -9 -3 5 -20 31 -39 13 -57
-58 -57 -66 0 -73 -20 -18 -55 31 -19 35 -35 22 -82 -13 -44 -9 -67 16 -93 31
-32 30 -33 -12 -21 -33 10 -45 6 -45 -18 0 -17 16 -32 35 -33 28 -1 29 -3 5
-13 -16 -6 -40 -25 -52 -41 -18 -25 -24 -21 -36 24 -9 36 -33 62 -73 75 -32
12 -53 30 -46 42 7 11 0 16 -15 11 -15 -5 -37 -27 -48 -49 -12 -24 -38 -39
-64 -37 -24 2 -39 -5 -33 -16 7 -10 -8 -13 -35 -6 -29 7 -22 0 17 -18 67 -31
92 -65 30 -41 -26 10 -23 1 12 -35 25 -27 47 -68 48 -91 2 -24 11 -43 19 -43
9 0 16 -13 16 -30 0 -59 -136 60 -142 124 -6 54 -8 63 -26 79 -11 10 -13 7 -5
-6 7 -13 0 -37 -17 -54 -22 -22 -24 -32 -5 -40 19 -7 17 -16 -5 -33 -26 -20
-25 -22 5 -13 34 11 113 -51 151 -120 11 -18 46 -33 81 -35 67 -2 90 -52 25
-52 -21 0 -43 -14 -50 -31 -6 -17 -21 -26 -33 -18 -12 7 -17 25 -12 39 13 33
-38 105 -59 84 -9 -8 -4 -44 10 -80 46 -111 52 -182 16 -168 -17 6 -35 1 -39
-12 -5 -13 -9 7 -11 45 -1 50 4 61 17 40 16 -25 18 -25 19 2 0 63 -54 113 -87
79 -49 -51 -58 -113 -21 -149 24 -24 27 -40 12 -55 -16 -16 -26 -7 -35 31 -7
29 -19 49 -27 44 -7 -4 -13 9 -13 29 0 20 6 33 13 29 27 -17 35 78 9 115 -29
42 -65 -4 -38 -49 8 -12 4 -15 -10 -7 -13 8 -23 3 -23 -12 -1 -19 -6 -18 -20
4 -15 23 -20 16 -21 -30 -2 -52 -4 -54 -19 -20 -16 37 -17 36 -19 -10 0 -28
-19 -62 -41 -75 -47 -30 -49 -54 -9 -135 16 -33 25 -43 19 -22 -9 30 -5 33 16
15 39 -32 54 -9 56 85 2 67 5 73 16 32 8 -31 31 -52 58 -56 54 -8 57 -51 7
-101 -20 -20 -42 -51 -49 -70 -7 -18 -22 -33 -34 -33 -26 0 -120 -98 -120
-124 0 -10 -10 -12 -21 -5 -12 7 -27 -6 -33 -29 -6 -24 -27 -42 -48 -42 -23 0
-38 -14 -38 -36 0 -32 -106 -144 -138 -144 -7 0 -29 -18 -48 -41 -19 -22 -44
-35 -55 -29 -10 7 -28 -11 -39 -39 -10 -28 -33 -52 -50 -54 -72 -5 -80 -10
-75 -39 3 -18 -18 -42 -46 -55 -33 -15 -46 -32 -36 -48 9 -15 0 -13 -21 4 -22
18 -27 33 -14 37 46 15 20 41 -40 40 -47 -2 -54 -6 -30 -20 55 -31 35 -56 -33
-42 -36 7 -69 18 -75 26 -17 23 -177 -3 -187 -31 -14 -34 72 -56 263 -66 107
-6 12 -83 -102 -82 -98 0 -102 2 -64 31 39 31 39 31 -8 25 -80 -11 -71 -53 17
-79 63 -19 76 -30 59 -50 -12 -15 -16 -36 -9 -47 8 -12 0 -21 -16 -21 -16 0
-35 -16 -42 -35 -16 -42 -49 2 -60 81 -10 74 -34 114 -68 114 -29 -1 -29 -3
-3 -20 25 -15 26 -26 5 -59 -21 -34 -20 -41 5 -41 16 0 30 -13 30 -30 0 -16 8
-30 18 -30 10 0 13 -19 7 -43 -8 -30 -4 -39 12 -29 13 8 23 2 23 -15 0 -16 11
-34 25 -40 14 -5 5 -11 -20 -11 -25 -1 -45 -12 -45 -24 0 -12 -14 -17 -31 -10
-51 19 -57 -45 -8 -85 44 -36 45 -41 18 -135 -31 -112 -31 -114 2 -125 14 -5
19 1 11 14 -9 14 -3 18 16 11 24 -9 25 -21 8 -59 -24 -53 5 -109 56 -109 29 0
39 -32 13 -43 -36 -16 -105 -174 -80 -183 20 -7 20 -17 0 -51 -29 -50 -15 -56
28 -13 16 16 25 46 19 65 -9 26 0 36 37 38 54 3 44 -30 -39 -124 -74 -84 -88
-105 -75 -117 6 -7 1 -12 -12 -12 -12 0 -23 9 -23 20 0 33 -29 23 -55 -19 -21
-34 -20 -38 8 -27 28 11 28 6 -3 -41 -37 -57 -61 -71 -44 -25 8 19 0 24 -27
17 -45 -11 -46 -15 -19 -64 15 -29 11 -39 -18 -46 -24 -7 -36 0 -34 20 1 17
-11 35 -28 40 -22 8 -24 4 -8 -14 29 -31 12 -115 -26 -130 -21 -8 -27 -2 -19
19 7 18 0 31 -18 33 -47 4 -57 7 -87 25 -19 13 -24 11 -14 -5 8 -13 4 -23 -8
-23 -12 0 -17 -9 -10 -20 7 -12 22 -15 34 -8 13 9 15 -4 6 -34 -13 -45 -12
-45 14 -11 25 33 31 33 54 6 13 -17 40 -26 58 -20 30 9 29 7 -1 -12 -19 -13
-35 -36 -35 -53 0 -41 -60 -60 -83 -26 -14 20 -17 14 -13 -24 7 -64 -36 -120
-79 -103 -24 9 -29 3 -18 -24 10 -26 6 -32 -17 -24 -21 8 -30 -1 -30 -33 -1
-32 -5 -37 -18 -17 -12 20 -19 16 -27 -15 -6 -23 -3 -37 7 -31 10 6 18 -8 18
-31 0 -28 8 -38 25 -28 19 10 20 8 2 -11 -39 -43 -105 -7 -101 55 3 34 -5 52
-21 49 -17 -3 -24 15 -21 50 2 31 -3 67 -11 81 -9 13 -6 24 6 24 11 0 21 9 21
20 0 11 -15 20 -32 20 -25 0 -28 6 -11 26 16 20 16 33 0 49 -12 12 -24 59 -26
104 -2 56 2 73 14 52 9 -17 28 -31 41 -31 33 0 76 -72 63 -106 -6 -15 3 -39
20 -53 57 -47 59 31 3 105 -29 37 -52 78 -52 90 0 13 -13 18 -30 11 -21 -8
-30 2 -30 33 0 33 7 40 25 26 75 -59 95 -48 93 50 -2 92 -2 93 -20 29 -11 -36
-32 -65 -48 -65 -65 0 -145 144 -91 163 10 4 24 34 31 67 12 57 11 58 -19 21
-28 -34 -31 -35 -31 -4 0 19 15 40 33 47 30 11 29 15 -3 38 -32 24 -31 27 18
39 28 7 52 18 52 23 0 22 -61 68 -78 57 -9 -6 -29 3 -42 19 -23 27 -14 39 25
32 8 -1 15 9 15 22 0 13 13 6 29 -15 26 -36 29 -36 41 -5 17 42 -5 81 -34 63
-14 -8 -16 -4 -8 10 8 13 23 18 33 12 11 -6 19 2 19 17 0 16 -20 34 -43 41
-50 13 -77 1 -77 -33 0 -14 8 -12 20 6 11 17 19 21 19 10 0 -28 -35 -81 -45
-69 -34 36 -32 98 3 123 49 34 37 128 -18 142 -36 9 -49 94 -15 94 9 0 16 19
16 41 0 23 -8 36 -18 30 -22 -13 -53 25 -67 84 -7 30 0 52 22 65 31 19 31 22
0 46 -25 19 -35 60 -36 155 -3 182 3 219 38 219 24 1 21 9 -11 35 -51 42 -47
217 4 197 18 -7 28 4 28 31 0 28 -9 38 -30 30 -40 -15 -38 16 9 148 21 60 42
146 47 189 11 103 33 153 59 137 21 -13 20 -1 -24 223 -56 284 -107 371 -115
195 -3 -49 -14 -101 -26 -115 -12 -14 -20 -56 -18 -93 2 -37 -20 -166 -48
-287 -91 -388 -92 -771 -3 -1250 62 -334 69 -395 100 -790 17 -220 48 -508 70
-640 21 -132 39 -247 39 -255 0 -8 24 -15 52 -15 45 0 49 4 28 30 -14 17 -20
37 -13 44 7 7 -2 31 -21 54 -19 23 6 4 55 -43 135 -127 136 -126 439 239 149
179 341 404 428 502 l158 176 -25 114 c-14 63 -44 150 -66 194 -163 320 -54
593 345 864 335 228 879 824 1474 1616 286 380 500 829 510 1068 3 56 10 102
17 102 7 0 13 43 14 95 1 52 10 149 22 215 11 66 21 177 22 247 1 144 9 163
60 163 45 0 195 160 231 247 22 52 24 118 9 314 -24 331 -22 743 3 989 30 276
28 292 -25 333 -63 48 -140 46 -205 -5 -70 -55 -81 -41 -44 55 16 42 35 120
42 172 7 52 21 100 33 107 11 6 15 24 10 38 -6 14 -4 32 3 39 14 14 16 25 21
116 2 31 21 71 43 90 22 18 40 49 40 68 0 19 10 41 23 49 16 9 20 1 14 -24 -5
-21 6 -53 24 -70 32 -31 38 -22 88 123 54 155 123 285 97 183 -8 -32 -3 -44
16 -40 70 15 150 390 118 556 -15 83 -14 86 14 50 30 -39 31 -39 20 6 -8 36
-5 41 14 25 20 -16 31 -3 48 54 57 193 54 229 -37 397 -46 87 -101 188 -121
225 -22 41 -32 89 -25 122 9 44 -2 63 -61 108 -40 30 -72 64 -72 76 0 24 -316
338 -440 436 -48 39 -81 59 -73 45 9 -13 6 -24 -6 -24 -11 0 -21 16 -21 35 0
20 -20 48 -45 64 -75 47 -280 160 -355 194 -80 36 -98 46 -290 149 -153 83
-277 109 -620 127 -388 22 -1182 28 -1323 10z m183 -99 c-7 -11 3 -20 23 -20
58 0 5 -32 -100 -60 -53 -14 -101 -38 -106 -52 -6 -14 -25 -20 -42 -13 -21 8
-27 4 -17 -11 9 -16 3 -19 -17 -12 -21 9 -28 4 -21 -15 7 -18 -12 -36 -51 -51
-35 -13 -57 -33 -50 -44 6 -10 -41 -47 -105 -82 -224 -119 -485 -423 -483
-562 0 -46 3 -45 59 22 32 39 59 59 59 46 1 -36 -101 -124 -130 -113 -34 13
-51 -19 -93 -182 -33 -127 -36 -131 -29 -48 6 73 2 89 -17 71 -13 -13 -20 -40
-14 -60 5 -21 -3 -46 -18 -56 -18 -11 -19 -17 -4 -18 16 0 18 -18 8 -55 -8
-30 -9 -77 -1 -105 13 -43 15 -40 17 25 3 124 42 85 42 -43 0 -65 13 -143 30
-175 16 -31 24 -74 18 -95 -8 -24 -5 -32 10 -23 12 7 22 3 22 -10 0 -15 -19
-19 -55 -10 -30 8 -48 8 -40 0 8 -8 0 -26 -18 -39 -40 -29 -19 -70 35 -70 22
0 35 -9 28 -20 -18 -29 76 -61 95 -32 11 16 20 14 32 -5 15 -22 27 -21 70 7
29 19 53 26 53 14 0 -11 -13 -25 -30 -31 -44 -17 -36 -49 15 -59 25 -5 9 -3
-35 3 -130 19 -292 6 -342 -27 -26 -16 -66 -30 -91 -30 -24 0 -60 -15 -80 -32
-32 -30 -38 -30 -68 0 -37 37 -40 35 139 69 122 23 160 42 117 57 -41 15 -7
46 51 46 l54 0 -56 30 c-31 16 -73 50 -94 75 -43 53 -73 37 -41 -23 19 -36 17
-42 -17 -42 -40 0 -74 64 -52 99 13 22 -36 126 -95 201 l-40 50 11 -60 c5 -33
15 -82 22 -110 11 -47 10 -47 -12 4 -13 30 -51 69 -85 87 -40 21 -46 29 -18
23 l43 -9 -41 92 c-54 125 -63 129 -47 23 9 -63 7 -81 -7 -60 -11 17 -21 46
-21 65 0 19 -9 35 -20 35 -49 0 74 -297 148 -359 18 -14 32 -34 32 -43 0 -35
70 -98 109 -99 37 0 37 -2 7 -20 -20 -12 -51 -12 -80 -1 -25 10 -86 30 -136
44 -92 27 -150 74 -171 140 -6 21 -20 38 -30 38 -27 0 -24 -27 6 -58 21 -22
18 -22 -18 -1 -47 29 -77 178 -40 202 10 7 -4 12 -32 10 -44 -3 -48 -9 -33
-49 29 -75 21 -92 -19 -43 -107 133 -1 836 144 957 17 14 25 39 19 55 -9 25
-15 25 -28 4 -12 -19 -17 -20 -18 -3 0 14 19 35 43 48 37 20 41 18 30 -11 -9
-23 -5 -31 12 -25 14 5 23 19 20 32 -3 13 15 31 40 40 25 10 62 36 83 60 21
23 47 42 59 42 11 0 -1 -23 -27 -50 -43 -46 -107 -189 -92 -205 4 -4 32 35 62
87 41 69 59 86 72 65 14 -22 18 -22 19 3 1 17 59 77 129 135 128 105 194 145
188 112 -8 -45 7 -46 67 -4 36 25 77 61 91 81 15 20 36 36 47 36 12 0 66 23
122 51 55 27 105 45 111 39 6 -5 32 4 59 21 26 17 58 28 71 23 13 -5 -11 -23
-54 -41 -103 -44 -82 -62 28 -23 47 17 90 27 94 22 5 -4 -26 -19 -68 -33 -100
-33 -300 -138 -329 -173 -18 -21 -15 -24 15 -14 34 12 33 8 -6 -33 -35 -37
-49 -41 -73 -22 -56 47 -315 -229 -437 -464 -48 -91 -80 -453 -41 -453 26 0
50 123 34 172 -11 31 -9 33 9 8 18 -25 21 -22 22 15 0 25 9 45 20 45 25 0 27
-54 3 -68 -26 -16 -66 -241 -50 -282 9 -25 6 -32 -10 -22 -26 16 -30 -7 -10
-58 17 -45 67 69 67 152 0 105 205 590 240 568 10 -6 24 0 32 13 9 14 6 18 -9
9 -134 -83 188 262 378 405 l89 67 -90 -81 c-126 -115 -90 -103 116 38 97 66
248 151 335 189 88 38 144 70 127 70 -43 0 -319 -90 -432 -142 -50 -22 -94
-37 -99 -32 -16 16 292 154 342 154 27 0 62 14 80 32 24 24 45 27 86 13 30
-10 78 -12 105 -4 42 13 44 16 10 18 l-40 4 40 17 c55 24 75 24 60 0z m-1349
-349 c-37 -27 -75 -45 -84 -39 -9 6 -17 -6 -17 -27 0 -29 -15 -37 -66 -37 -37
0 -94 -20 -128 -44 -84 -60 -103 -56 -30 6 33 28 70 50 82 50 12 0 22 8 22 18
0 25 114 68 139 53 11 -7 21 -5 21 5 0 10 20 28 45 40 78 37 85 26 16 -25z
m2797 -18 c-57 -44 -259 -127 -210 -86 31 27 85 58 120 69 65 21 104 29 90 17z
m-2461 -83 c-26 -25 -60 -65 -77 -89 -16 -24 -48 -54 -69 -66 -32 -17 -29 -7
14 47 105 132 145 172 162 163 10 -6 -4 -30 -30 -55z m-826 -291 c13 -21 -78
-119 -111 -119 -24 0 -49 -80 -42 -137 4 -31 -2 -43 -17 -34 -29 18 -16 138
20 178 16 18 47 55 69 82 44 55 61 62 81 30z m577 -110 c-27 -54 -44 -76 -36
-49 17 64 69 166 79 156 4 -4 -15 -52 -43 -107z m1632 -724 c-39 -81 -97 -104
-116 -46 -5 15 2 22 19 17 15 -6 47 20 74 59 61 89 73 74 23 -30z m38 -197
c-30 -32 -60 -45 -87 -38 -22 5 -30 4 -16 -2 14 -6 25 -20 25 -31 0 -11 -10
-13 -22 -6 -16 10 -15 2 0 -28 20 -36 18 -40 -10 -30 -27 11 -30 4 -18 -33 12
-38 9 -44 -19 -33 -19 7 -28 4 -21 -7 7 -11 -2 -20 -19 -20 -17 0 -31 13 -31
29 0 16 -9 34 -20 41 -11 7 -15 -3 -8 -24 10 -30 8 -31 -10 -6 -34 47 -29 131
6 101 20 -16 32 -16 42 -2 7 12 21 16 31 10 11 -6 19 -2 19 10 0 11 -10 21
-21 21 -12 0 -8 14 9 31 35 34 120 58 101 28 -28 -46 34 -14 65 34 20 30 38
42 42 28 5 -13 -12 -46 -38 -73z m-2258 -9 c0 -11 13 -19 29 -19 20 0 25 -12
17 -33 -8 -22 -5 -29 10 -20 12 8 31 -3 42 -23 15 -28 36 -35 81 -28 37 5 61
0 61 -14 0 -12 33 -22 75 -22 81 -1 143 -28 118 -53 -8 -9 -68 -16 -133 -15
-65 0 -113 -7 -108 -16 6 -9 -3 -16 -19 -16 -16 0 -34 11 -39 25 -7 20 -14 20
-35 0 -21 -19 -21 -25 -2 -25 14 0 19 -10 12 -22 -9 -15 -20 -15 -34 -1 -27
27 -126 -23 -156 -79 -12 -23 -34 -36 -50 -30 -16 6 -27 4 -25 -4 7 -30 -52
-124 -77 -124 -15 0 -27 -7 -27 -16 0 -25 86 -24 117 2 25 21 26 18 6 -20 -29
-54 -32 -110 -3 -66 53 82 12 -44 -62 -190 -84 -167 -89 -137 -7 46 56 124 46
201 -14 110 -20 -31 -33 -67 -28 -80 5 -14 1 -30 -10 -37 -43 -26 -76 -145
-60 -215 16 -71 14 -115 -18 -314 -17 -106 -17 -103 -16 66 0 96 -5 181 -12
188 -7 7 -13 -2 -13 -21 0 -18 -8 -33 -17 -33 -29 0 74 354 126 431 59 86 62
102 21 102 -16 0 -30 -7 -30 -16 0 -9 -9 -17 -19 -17 -23 0 48 126 91 162 24
20 25 28 4 42 -20 13 -19 21 8 37 19 11 47 33 64 49 16 17 47 30 70 30 105 0
134 153 41 211 -28 17 -23 -26 12 -92 30 -60 22 -73 -29 -41 -15 10 -29 45
-30 78 -1 33 -8 57 -15 52 -7 -4 -17 10 -23 32 -10 41 20 54 58 25 11 -8 -1 5
-26 29 -62 59 -58 69 14 33 33 -16 60 -38 60 -48z m3030 31 c-55 -15 -118 -22
-140 -15 -51 16 39 40 160 41 l80 1 -100 -27z m-711 -92 c-27 -51 -14 -70 21
-28 14 16 34 30 46 30 12 0 0 -23 -26 -50 -32 -35 -52 -43 -62 -27 -10 16 -30
10 -69 -20 -30 -24 -60 -39 -66 -33 -5 6 7 24 28 40 22 16 28 29 14 29 -14 1
-25 11 -25 22 0 12 16 16 37 10 22 -7 50 4 73 29 47 51 57 51 29 -2z m601 1
c0 -19 -140 -45 -156 -29 -7 7 -3 18 10 26 31 19 146 22 146 3z m655 -12 c24
-6 40 -19 34 -28 -5 -9 15 -39 45 -67 65 -61 55 -81 -22 -41 -31 16 -71 30
-89 31 -26 2 -26 5 4 12 34 9 34 11 -5 39 -72 50 -55 78 33 54z m-2175 -23
c-16 -5 -35 -18 -42 -28 -12 -19 -78 -1 -78 22 0 8 34 15 75 15 41 1 62 -3 45
-9z m2324 -179 c-19 -7 -15 -17 14 -38 23 -16 51 -47 63 -70 30 -55 -29 -23
-105 56 l-54 57 54 2 c30 2 42 -1 28 -7z m-3893 -743 c-37 -150 -96 -265 -78
-152 32 203 75 329 102 301 5 -5 -6 -72 -24 -149z m4838 -733 c43 -44 40 -62
-31 -152 -57 -72 -60 -83 -38 -137 13 -33 21 -91 16 -129 -5 -45 1 -73 18 -80
14 -5 26 -32 26 -59 0 -27 8 -70 17 -96 43 -120 -9 -151 -63 -37 -39 82 -47
116 -30 136 12 14 15 32 6 40 -8 8 -19 6 -23 -5 -59 -156 -121 -42 -129 239
-6 167 16 227 99 270 90 48 93 48 132 10z m-4881 -462 c5 -13 16 -96 23 -185
14 -170 -4 -208 -47 -97 -23 58 -28 61 -47 29 -16 -28 -13 -46 12 -73 24 -27
27 -39 9 -45 -18 -6 -16 -21 7 -57 59 -92 18 -201 -75 -196 -35 1 -36 3 -4 11
44 11 33 58 -12 50 -19 -3 -34 12 -38 40 -4 26 -19 44 -33 41 -16 -4 -20 3
-10 19 8 14 16 39 18 56 14 165 33 221 70 210 47 -15 56 39 10 57 -28 11 -141
171 -127 182 62 50 219 23 244 -42z m4761 -372 c-7 -21 -1 -35 15 -35 20 -1
20 -4 2 -16 -13 -8 -38 -47 -55 -85 l-30 -69 3 143 c3 133 6 141 39 120 23
-14 32 -36 26 -58z m148 -92 c-4 -82 -63 -215 -100 -227 -16 -6 -18 -22 -8
-47 9 -22 19 -52 22 -69 3 -16 11 -48 18 -70 9 -26 -1 -56 -28 -85 -42 -44
-41 -130 1 -156 10 -6 18 -22 18 -35 -1 -16 -6 -15 -18 3 -12 20 -22 10 -38
-35 -12 -34 -32 -62 -44 -62 -12 0 -16 -11 -8 -25 11 -20 8 -20 -13 0 -19 18
-25 68 -22 170 14 357 35 461 100 507 29 21 39 46 34 87 -5 37 3 62 21 69 15
6 28 25 28 43 0 17 9 26 21 19 11 -7 18 -46 16 -87z m-5100 -196 c-12 -15 -12
-28 1 -36 12 -7 20 -43 18 -80 -3 -78 35 -143 134 -234 39 -35 65 -68 60 -74
-6 -6 13 -35 42 -65 45 -48 51 -66 39 -130 -10 -56 -19 -68 -32 -47 -10 16
-19 20 -19 9 0 -11 -19 18 -42 65 -23 47 -50 85 -59 85 -10 0 -23 32 -30 70
-8 39 -24 70 -38 70 -50 0 -97 146 -104 320 -5 154 -3 165 22 120 18 -33 21
-58 8 -73z m343 -850 c0 -64 -5 -72 -40 -63 -60 16 -66 38 -28 117 40 84 67
62 68 -54z m2669 -455 c6 -10 0 -23 -14 -29 -16 -6 -13 -10 8 -11 42 -2 63
-56 38 -99 -18 -30 -20 -30 -20 0 -1 49 -49 81 -78 52 -19 -19 -19 -10 -2 40
23 65 47 81 68 47z m-2272 -367 c-2 -36 3 -86 12 -113 10 -32 8 -43 -7 -33
-12 7 -22 27 -22 43 0 16 -13 34 -29 40 -16 6 -24 24 -18 40 6 15 20 22 31 15
13 -7 15 4 7 30 -8 26 -5 43 8 43 13 0 20 -29 18 -65z m3456 -160 c5 -24 -6
-35 -33 -35 -22 0 -40 7 -40 16 0 9 -18 36 -41 60 -23 25 -36 53 -30 63 7 10
3 24 -9 31 -11 7 -20 27 -20 45 0 40 164 -130 173 -180z m-433 -735 c21 -29
32 -33 44 -15 12 20 15 19 16 -1 0 -14 -13 -30 -30 -37 -38 -14 -39 -47 -2
-47 15 0 32 -18 38 -40 6 -22 1 -40 -10 -40 -13 0 -12 -10 2 -28 18 -21 13
-30 -23 -39 -45 -13 -131 58 -104 85 7 7 30 -10 52 -36 l39 -49 -12 66 c-6 36
-31 83 -56 105 -29 25 -36 42 -20 49 13 5 19 23 13 38 -17 43 20 35 53 -11z
m-1840 -371 c0 -16 14 -35 30 -42 34 -13 41 -87 8 -87 -13 0 -17 15 -9 34 7
19 7 28 -1 21 -8 -8 -26 -5 -41 8 -31 26 -36 97 -7 97 11 0 20 -14 20 -31z
m420 -331 c0 -12 14 -17 30 -11 18 7 30 0 30 -18 0 -16 -8 -29 -18 -29 -31 0
-45 -66 -18 -83 19 -12 16 -16 -11 -17 -30 0 -36 12 -29 61 5 33 2 65 -7 71
-24 14 -21 48 3 48 11 0 20 -10 20 -22z m-1030 -217 c-8 -88 -26 -207 -42
-265 -30 -117 -30 -123 15 239 29 227 46 244 27 26z"/>
<path d="M4490 10440 c-76 -77 -130 -140 -119 -140 19 0 229 208 257 255 28
47 1 25 -138 -115z"/>
<path d="M4026 10389 c-20 -28 -61 -83 -91 -122 -30 -40 -56 -83 -57 -95 -5
-44 -16 -124 -32 -232 -23 -156 -12 -241 28 -226 22 9 28 5 18 -11 -8 -13 -8
-44 0 -68 l15 -45 13 50 c8 28 6 71 -3 97 -10 27 -8 101 6 180 13 73 24 153
25 178 1 25 9 45 18 45 9 0 12 7 6 16 -5 10 21 77 58 150 68 133 65 181 -4 83z"/>
<path d="M3738 10315 c-91 -114 -197 -342 -171 -369 7 -7 13 2 13 21 0 18 8
33 18 33 10 0 24 23 31 52 7 29 29 76 49 105 160 236 194 324 60 158z"/>
<path d="M4298 10145 c-16 -19 -39 -55 -53 -79 -57 -104 -155 -455 -107 -386
12 17 22 50 22 75 0 25 26 93 58 150 32 58 53 118 47 133 -6 15 -2 22 9 16 10
-7 34 14 53 46 37 63 14 99 -29 45z"/>
<path d="M3662 10023 c-12 -22 -22 -55 -22 -73 0 -18 -7 -28 -15 -23 -8 5 -17
-10 -19 -34 -2 -24 -10 -99 -18 -168 -19 -186 20 -154 50 40 14 91 35 190 46
221 26 66 8 94 -22 37z"/>
<path d="M4209 9690 c-8 -38 -6 -104 3 -145 9 -41 17 -86 17 -99 1 -13 9 -31
19 -40 10 -9 11 19 2 64 -8 44 -13 127 -12 185 3 121 -10 137 -29 35z"/>
<path d="M4155 9389 c-18 -19 89 -169 111 -155 12 7 8 21 -10 34 -16 12 -36
47 -43 77 -13 53 -33 68 -58 44z"/>
<path d="M3720 9357 c0 -17 18 -54 40 -82 22 -28 40 -66 40 -84 0 -18 9 -28
20 -21 11 7 34 -2 52 -19 52 -52 79 -35 29 18 -26 28 -54 45 -64 39 -9 -5 -12
2 -8 16 5 14 -17 57 -50 95 -38 45 -59 58 -59 38z"/>
<path d="M6642 10864 c-71 -3 -147 -19 -170 -35 -22 -16 -57 -29 -78 -29 -20
0 -31 -9 -25 -19 7 -11 -13 -35 -43 -55 -148 -93 -283 -228 -166 -166 63 34
47 12 -45 -60 -70 -55 -76 -58 -37 -14 27 30 39 54 28 54 -12 0 -58 -41 -103
-91 -45 -51 -92 -86 -104 -79 -27 17 29 83 84 101 21 7 32 20 26 30 -6 11 -4
19 5 20 9 0 34 25 56 55 37 52 35 51 -44 -11 -112 -89 -266 -259 -359 -399
-43 -64 -101 -147 -130 -186 -29 -38 -77 -115 -106 -170 -30 -55 -76 -138
-103 -184 -49 -86 -23 -104 33 -23 16 23 57 79 91 124 34 46 108 151 164 235
109 163 281 332 528 521 140 107 227 190 154 147 -15 -9 -11 3 10 27 41 46 84
59 60 18 -8 -14 2 -10 24 8 63 54 233 131 318 144 61 10 40 -3 -87 -55 -215
-88 -260 -130 -54 -51 190 73 307 101 322 77 6 -10 -7 -18 -30 -18 -22 0 -41
-9 -41 -19 0 -11 -38 -29 -85 -41 -91 -22 -220 -81 -207 -94 7 -7 387 112 410
128 62 44 -136 118 -296 110z"/>
<path d="M6053 10718 c-100 -52 -279 -205 -261 -224 4 -3 -14 -7 -38 -9 -37
-2 -29 11 46 78 94 83 77 86 -34 4 -73 -54 -85 -134 -17 -117 29 7 26 3 -9
-15 -77 -38 -119 -80 -106 -104 7 -11 5 -14 -4 -6 -9 8 -35 -1 -56 -20 -39
-34 -39 -34 -14 15 26 50 26 50 -16 13 -129 -114 -367 -534 -371 -655 -2 -41
-9 -70 -16 -66 -15 9 -35 -115 -31 -185 7 -119 74 21 74 156 0 31 10 57 22 57
12 0 17 -13 11 -30 -28 -73 26 -20 77 75 30 58 109 186 174 285 77 116 97 155
55 110 -61 -67 -62 -68 -29 -10 19 33 57 83 83 111 26 29 43 56 38 62 -6 5 39
52 99 105 61 52 110 104 110 115 0 33 119 175 167 200 34 18 31 9 -16 -40 -84
-90 -45 -77 76 24 57 48 121 97 143 109 l40 23 -40 -1 c-22 0 -93 -27 -157
-60z"/>
<path d="M5483 10726 c-11 -20 -25 -34 -32 -31 -40 18 -93 -8 -181 -85 -55
-49 -91 -89 -80 -89 11 0 59 36 107 80 47 43 99 80 115 82 55 4 65 7 80 22 23
23 52 18 37 -7 -10 -15 -1 -15 29 1 23 12 42 27 42 33 0 6 -9 5 -21 -3 -11 -7
-33 -2 -48 10 -22 18 -32 15 -48 -13z"/>
<path d="M5606 10682 c-57 -29 -134 -80 -170 -115 -36 -34 -75 -59 -87 -54
-11 4 -35 -17 -53 -48 -19 -30 -76 -100 -127 -155 -98 -106 -88 -82 37 86 42
56 110 129 150 162 41 33 64 61 51 61 -106 3 -495 -484 -543 -679 -38 -158
-41 -180 -22 -191 11 -7 17 -5 14 5 -5 21 113 256 145 286 6 6 44 57 86 115
95 130 368 387 513 482 61 39 114 74 118 77 44 30 -30 9 -112 -32z"/>
<path d="M6505 10587 c-14 -6 -21 -18 -15 -27 6 -9 -46 -48 -115 -87 -156 -87
-555 -457 -675 -626 -116 -164 -316 -475 -344 -538 -19 -41 -16 -55 21 -86 54
-48 54 -52 -5 -56 -36 -2 -52 10 -61 45 -12 48 -51 68 -51 27 0 -13 -11 -11
-26 5 -33 34 -33 116 0 116 14 0 26 -8 26 -18 0 -10 15 -23 32 -30 24 -9 29
-4 20 19 -6 17 -3 26 7 20 10 -7 24 -3 31 9 7 11 1 20 -12 20 -16 0 -13 13 9
37 18 20 33 45 33 57 0 11 28 58 62 105 43 60 55 92 40 107 -14 14 -25 9 -35
-18 -25 -66 -134 -190 -159 -180 -15 6 -20 -5 -13 -29 5 -22 0 -39 -14 -39
-13 0 -17 10 -9 23 9 14 5 18 -8 9 -12 -7 -17 -28 -10 -46 8 -21 5 -28 -10
-18 -14 8 -28 -6 -36 -37 -7 -28 -21 -51 -31 -51 -10 0 -9 -18 3 -40 12 -23
16 -50 9 -62 -8 -12 2 -18 24 -14 26 4 35 -5 31 -29 -3 -20 7 -40 23 -47 16
-6 24 -27 19 -47 -7 -26 4 -38 42 -45 28 -6 46 -3 40 7 -6 9 13 17 41 17 28 0
51 9 51 20 0 11 9 20 19 20 36 0 -3 -61 -56 -89 -47 -25 -49 -30 -17 -42 72
-28 135 82 123 221 -5 66 -10 151 -11 189 l0 68 -40 -58 c-23 -36 -35 -79 -29
-109 5 -27 5 -39 -1 -25 -6 14 -24 25 -40 25 -40 0 22 117 206 394 158 237
165 245 542 593 91 84 204 172 250 195 146 74 248 197 119 145z"/>
<path d="M6294 10507 c-52 -29 -104 -69 -115 -89 -25 -46 6 -51 42 -7 15 18
61 49 103 71 42 21 76 48 76 58 0 25 7 27 -106 -33z"/>
<path d="M5007 10453 c-244 -180 -387 -368 -399 -523 -3 -44 -14 -125 -25
-180 -11 -54 -14 -108 -8 -118 6 -10 14 -49 17 -88 9 -124 48 -125 48 -1 0 62
19 169 42 239 24 71 42 144 42 163 -1 19 6 35 16 35 10 0 46 58 80 130 41 86
107 175 201 268 76 76 139 144 139 150 0 28 -43 7 -153 -75z"/>
<path d="M6009 10315 c-31 -36 -62 -63 -70 -61 -19 6 -278 -281 -325 -360 -21
-35 -61 -89 -90 -119 -37 -39 -46 -61 -30 -77 15 -15 49 16 119 108 153 203
469 535 494 520 13 -8 11 2 -4 20 -35 43 -30 45 -94 -31z"/>
<path d="M6111 10168 c-110 -104 -190 -188 -179 -188 27 0 401 352 388 365 -5
6 -100 -74 -209 -177z"/>
<path d="M6874 10272 c-89 -50 -234 -158 -338 -254 -101 -92 -194 -167 -208
-168 -22 0 -70 -46 -150 -144 -22 -28 -27 -52 -14 -85 15 -41 13 -43 -15 -20
-27 23 -32 22 -28 -2 10 -62 -44 -162 -73 -137 -17 14 -28 15 -28 3 0 -46 68
-45 118 2 170 157 839 613 900 613 11 0 50 16 86 36 36 20 102 51 146 69 70
29 74 33 27 34 -131 3 -904 -402 -1025 -536 -20 -23 -47 -36 -58 -29 -13 8
-16 -1 -6 -26 10 -27 8 -32 -7 -16 -31 30 -11 71 57 117 38 25 56 52 51 77 -6
30 -2 33 21 14 22 -18 49 -6 133 60 57 46 148 105 201 132 53 27 96 57 96 67
0 10 31 30 69 43 38 14 63 34 57 45 -7 11 -2 13 13 4 22 -14 59 -3 165 51 19
9 71 23 116 30 44 7 86 21 92 31 6 9 35 18 64 19 l54 1 -58 18 c-60 18 -171 9
-291 -22 -91 -24 -98 -12 -17 28 36 18 53 32 36 31 -16 0 -100 -39 -186 -86z"/>
<path d="M7583 10282 c-23 -14 -23 -19 0 -28 16 -6 10 -11 -16 -12 -23 -1 -73
-16 -110 -33 -43 -20 -49 -27 -17 -18 28 7 100 21 160 30 251 41 305 58 165
52 -69 -3 -125 2 -125 11 0 21 -23 20 -57 -2z"/>
<path d="M5172 10147 c-7 -21 -43 -57 -80 -81 -37 -24 -82 -72 -99 -106 -17
-34 -51 -94 -76 -134 -24 -40 -35 -67 -23 -60 12 8 4 -20 -17 -61 -20 -41 -33
-86 -28 -100 5 -14 2 -25 -7 -25 -27 0 -40 -106 -19 -146 27 -50 77 -9 78 63
0 29 18 103 39 163 21 61 39 133 39 161 1 74 113 242 156 235 19 -3 35 3 36
14 1 11 10 36 18 56 9 20 11 41 5 46 -6 6 -16 -5 -22 -25z"/>
<path d="M7610 9998 c-105 -56 -128 -78 -79 -79 29 -1 24 -8 -21 -28 -84 -39
-48 -38 49 1 45 18 76 40 71 49 -17 27 24 41 144 50 72 6 119 1 128 -14 9 -15
38 -17 91 -5 l77 16 -65 7 c-36 4 -65 16 -65 26 0 38 -247 21 -330 -23z"/>
<path d="M5062 9939 c-25 -44 -41 -91 -35 -104 6 -15 11 -10 11 10 1 19 10 35
20 35 18 0 68 120 56 133 -4 4 -27 -30 -52 -74z"/>
<path d="M8155 9948 c-8 -7 -52 -15 -98 -16 -165 -6 -97 -42 83 -44 174 -3
231 15 132 40 -27 6 -61 17 -76 23 -16 5 -34 4 -41 -3z"/>
<path d="M4749 9878 c-21 -67 -27 -308 -9 -339 30 -48 43 -8 52 164 8 158 7
164 -22 117 l-32 -50 14 50 c7 28 18 61 23 75 5 14 4 25 -2 25 -5 0 -16 -19
-24 -42z"/>
<path d="M7729 9900 c-87 -18 -372 -124 -361 -135 4 -3 77 17 162 45 86 28
205 56 264 63 59 7 112 20 118 30 12 20 -71 19 -183 -3z"/>
<path d="M4493 9866 c-20 -19 -15 -122 5 -135 28 -17 39 34 17 76 -13 27 -12
34 3 24 12 -7 22 -4 22 7 0 26 -31 44 -47 28z"/>
<path d="M7530 9770 c-55 -27 -126 -58 -158 -69 -32 -12 -54 -26 -48 -32 6 -6
86 25 179 68 92 44 158 80 147 80 -11 0 -65 -21 -120 -47z"/>
<path d="M8714 9745 c7 -41 25 -93 41 -115 22 -29 27 -31 19 -6 -7 18 -22 70
-34 115 -27 102 -41 105 -26 6z"/>
<path d="M8200 9602 l-50 -15 45 -15 c61 -20 181 5 143 30 -32 20 -67 20 -138
0z"/>
<path d="M4676 9521 c4 -32 26 -75 49 -95 48 -43 36 23 -20 109 -38 58 -40 57
-29 -14z"/>
<path d="M4907 9437 c-15 -34 -11 -53 17 -81 44 -44 68 -46 84 -4 20 52 12 60
-19 19 -16 -21 -30 -30 -32 -20 -1 11 -4 40 -7 65 -7 64 -21 71 -43 21z"/>
<path d="M4499 9431 c9 -12 23 -51 30 -87 12 -52 20 -61 41 -44 22 18 22 31
-1 75 -15 28 -23 59 -18 67 6 9 -8 14 -30 13 -24 -2 -33 -11 -22 -24z"/>
<path d="M7760 9318 c-38 -8 -75 -11 -82 -7 -8 5 -19 -6 -26 -24 -10 -25 -3
-29 29 -21 23 6 67 2 99 -9 37 -13 87 -13 144 -1 l86 20 -90 2 c-57 2 -80 9
-63 20 42 26 -14 38 -97 20z"/>
<path d="M8080 9262 l-70 -14 70 -13 c66 -13 209 7 235 33 15 15 -143 11 -235
-6z"/>
<path d="M7505 9243 c-32 -20 94 -83 166 -83 70 0 60 25 -28 65 -85 39 -102
41 -138 18z"/>
<path d="M7400 9205 c1 -33 34 -58 105 -79 99 -29 95 -4 -7 50 -90 49 -98 51
-98 29z"/>
<path d="M8010 9169 c-55 -16 -154 -29 -220 -30 -129 -2 -104 -35 29 -38 64
-1 67 -3 37 -34 -30 -30 -39 -29 -121 10 -117 57 -157 56 -99 -2 75 -75 241
-60 399 35 168 101 164 111 -25 59z"/>
<path d="M5514 8980 c-11 -44 15 -73 36 -40 7 11 21 16 30 10 9 -6 23 -2 30
10 7 11 -2 20 -19 20 -17 0 -31 9 -31 20 0 36 -35 21 -46 -20z"/>
<path d="M8245 8934 c-51 -75 -57 -102 -20 -88 14 5 46 -10 71 -33 l47 -42
-22 58 c-17 43 -17 61 0 72 17 10 17 25 0 56 -28 53 -23 55 -76 -23z"/>
<path d="M7610 8800 c7 -11 2 -20 -10 -20 -14 0 -11 -12 7 -30 17 -16 41 -30
54 -30 18 0 18 7 -1 30 -20 24 -20 30 3 30 21 1 21 5 -3 20 -39 25 -66 25 -50
0z"/>
<path d="M7490 8760 c-34 -15 -35 -17 -5 -19 19 0 46 -19 60 -41 26 -42 155
-59 155 -21 0 11 -13 15 -29 9 -34 -13 -153 52 -139 76 12 19 11 19 -42 -4z"/>
<path d="M7240 8180 c0 -11 -13 -20 -30 -20 -16 0 -30 -14 -30 -31 0 -27 7
-27 59 4 32 19 54 42 49 51 -14 23 -48 20 -48 -4z"/>
<path d="M5507 8108 c-20 -42 -18 -48 15 -48 39 0 49 32 22 73 -10 16 -22 8
-37 -25z"/>
<path d="M7500 8029 c-11 -29 -20 -58 -19 -65 1 -23 99 -87 99 -65 0 12 -8 21
-18 21 -10 0 -14 17 -8 38 5 21 0 43 -11 50 -12 7 -16 26 -10 43 6 16 6 29 -1
29 -7 0 -22 -23 -32 -51z"/>
<path d="M4003 7984 c-2 -37 -12 -61 -22 -55 -11 7 -14 25 -8 42 6 16 2 29 -9
29 -26 0 -63 -113 -58 -175 2 -25 13 -45 24 -44 11 0 17 32 14 70 -3 38 4 69
15 69 12 0 21 -11 22 -25 0 -14 10 -9 21 11 11 19 17 60 12 90 -7 49 -8 48
-11 -12z"/>
<path d="M4050 7860 c-7 -11 -21 -16 -30 -10 -9 6 -24 0 -32 -13 -8 -14 -6
-18 7 -10 12 7 26 2 32 -12 7 -19 15 -18 31 5 18 25 25 25 40 3 11 -18 21 -20
30 -6 7 11 -5 30 -26 42 -27 14 -44 15 -52 1z"/>
<path d="M7695 7775 c-15 -37 5 -135 27 -135 10 0 12 34 6 75 -14 87 -19 97
-33 60z"/>
<path d="M4666 7689 c-45 -70 -23 -98 27 -34 25 32 26 32 13 -5 -12 -35 -10
-37 20 -13 39 32 46 123 9 122 -14 0 -45 -32 -69 -70z"/>
<path d="M7050 7680 c-22 -9 -31 -19 -20 -21 11 -2 -7 -11 -40 -21 -45 -12
-30 -15 61 -9 67 3 137 -2 156 -12 18 -11 71 -26 117 -33 45 -8 86 -25 90 -37
11 -32 -123 -29 -230 6 -107 34 -169 37 -124 5 31 -21 13 -19 -100 13 -22 7
-40 4 -40 -5 0 -30 -82 -69 -107 -50 -39 30 -93 44 -93 23 0 -10 16 -19 35
-19 30 -1 31 -3 5 -20 -40 -26 -61 -25 -55 2 3 12 -22 25 -55 29 -39 5 -50 1
-32 -10 17 -10 -15 -17 -88 -18 -109 -1 -190 -23 -88 -23 26 0 62 -10 78 -22
23 -16 16 -19 -30 -11 -32 5 -82 -3 -110 -17 -28 -14 -80 -31 -117 -37 -67
-10 -111 -33 -65 -33 13 0 18 -10 11 -22 -10 -16 -18 -15 -29 2 -12 19 -26 18
-62 -3 -27 -15 -79 -36 -116 -47 -38 -11 -73 -32 -78 -47 -6 -20 3 -23 34 -14
27 9 42 5 42 -11 0 -14 -6 -19 -13 -12 -7 8 -24 5 -37 -6 -17 -14 -30 -5 -46
30 -24 53 -64 68 -64 24 0 -14 11 -37 24 -50 19 -19 16 -24 -11 -24 -20 0 -30
-9 -23 -20 7 -12 21 -15 31 -9 11 6 19 2 19 -10 0 -11 -10 -21 -21 -21 -12 0
-15 -10 -8 -22 8 -12 2 -30 -13 -40 -17 -10 4 -12 52 -6 58 8 72 6 51 -9 -37
-26 -18 -48 26 -31 18 7 33 29 33 50 0 21 10 38 21 38 12 0 16 -8 10 -19 -6
-10 -3 -24 9 -31 11 -7 20 2 20 19 0 35 217 144 265 134 9 -2 76 10 150 25
155 33 352 55 559 63 92 3 161 17 190 37 49 35 85 42 67 14 -6 -10 12 -16 39
-15 28 2 50 9 50 16 0 7 19 8 43 2 27 -7 49 1 61 22 10 19 43 33 78 33 35 0
55 -8 48 -20 -7 -11 -1 -21 14 -22 14 -1 53 -5 86 -10 l60 -8 -55 34 c-30 20
-55 42 -55 51 0 8 -16 32 -35 52 -19 20 -44 52 -55 70 -11 19 -49 36 -85 39
-36 2 -65 10 -65 16 0 7 -24 8 -53 2 -34 -6 -61 1 -75 20 -51 69 -156 93 -242
56z m444 -227 c-6 -15 -34 -28 -62 -28 -32 0 -46 8 -38 23 7 12 -4 8 -26 -10
-41 -34 -248 -51 -248 -20 0 10 38 23 85 30 47 7 130 20 185 28 114 17 119 16
104 -23z m-324 -73 c68 -17 56 -20 -130 -32 -82 -5 -87 -3 -51 23 41 31 86 33
181 9z"/>
<path d="M3820 7558 c0 -16 11 -43 25 -58 21 -24 20 -24 -7 -4 -27 20 -42 17
-80 -13 l-46 -38 79 13 c64 11 78 21 72 53 -8 50 -43 88 -43 47z"/>
<path d="M4473 7554 c-29 -9 -53 -27 -53 -40 0 -15 7 -15 24 2 13 13 62 24
109 24 46 0 89 7 95 16 13 22 -109 20 -175 -2z"/>
<path d="M4120 7497 c-82 -35 -51 -39 52 -7 30 9 41 4 41 -19 0 -18 -11 -29
-24 -23 -13 5 -23 -6 -22 -25 2 -26 -16 -34 -87 -36 -49 -2 -130 -17 -179 -34
-69 -24 -93 -26 -105 -7 -12 18 -15 18 -16 -1 0 -14 -18 -25 -40 -25 -22 0
-40 -10 -40 -22 0 -13 20 -19 48 -14 56 11 58 -22 5 -81 -27 -30 -29 -41 -9
-49 14 -6 4 -12 -24 -14 l-50 -4 50 -16 c47 -15 47 -16 6 -18 -24 -1 -49 7
-56 18 -24 38 -50 -2 -37 -56 19 -81 67 -166 63 -114 -6 95 2 112 43 91 48
-26 82 -27 42 -2 -50 32 -7 47 204 74 93 12 119 33 70 55 -14 6 -2 6 25 -1 28
-7 53 -19 56 -27 3 -9 39 -8 80 1 41 10 94 12 119 6 25 -6 60 1 78 16 30 24
27 28 -25 40 l-58 12 54 3 c30 1 62 -11 71 -28 13 -23 64 -30 241 -32 278 -2
301 -25 56 -55 -277 -34 -566 -108 -702 -180 -66 -34 -130 -63 -143 -63 -13 0
-28 -11 -34 -25 -7 -19 -15 -18 -31 5 -15 21 -21 23 -22 4 0 -14 14 -30 30
-37 40 -15 38 -42 -5 -53 -26 -7 -27 -10 -4 -12 16 -1 41 -31 55 -67 18 -47
29 -58 42 -38 26 42 144 44 122 2 -15 -27 -8 -32 41 -29 32 2 59 -3 59 -11 0
-21 174 -65 198 -50 12 7 22 26 22 42 0 16 9 29 20 29 26 0 26 -34 0 -50 -12
-7 -16 -21 -10 -30 6 -10 -4 -26 -22 -36 -34 -19 -191 28 -205 61 -3 8 -15 10
-26 3 -11 -7 -9 -24 7 -43 14 -17 24 -34 21 -38 -50 -69 476 -103 543 -36 13
13 66 30 118 37 52 8 94 21 94 30 0 8 34 31 75 51 67 32 71 38 35 52 -94 38
-250 14 -250 -38 -1 -29 -3 -29 -22 -3 -13 19 -24 22 -30 9 -10 -25 -126 -14
-163 16 -14 12 -32 15 -39 8 -7 -7 0 -14 16 -14 15 -1 6 -10 -20 -21 -57 -22
-111 11 -65 40 25 16 11 21 -152 53 -13 3 -50 17 -82 31 l-58 26 66 70 c37 39
74 64 82 55 9 -8 3 -24 -14 -34 -16 -10 -20 -19 -8 -19 11 0 40 14 64 31 41
28 45 27 75 -30 96 -186 410 -128 410 76 0 94 32 93 127 -5 94 -97 96 -111 15
-113 -50 -2 -234 -75 -192 -77 11 0 101 12 200 27 109 17 187 21 199 9 47 -45
42 -12 -6 45 -154 184 -223 221 -434 233 -185 10 -465 -65 -663 -177 -121 -68
-138 -51 -39 36 174 153 766 266 902 172 22 -15 55 -27 74 -27 49 0 177 -79
177 -110 0 -14 18 -30 40 -36 22 -6 35 -2 29 8 -6 10 -1 18 12 18 15 0 18 -25
9 -80 -12 -72 -10 -79 23 -68 22 7 28 5 15 -5 -12 -9 -32 -48 -45 -86 l-24
-68 47 43 c54 51 74 55 74 16 0 -71 55 -73 96 -4 68 114 50 267 -40 358 l-72
72 58 12 c55 13 98 60 98 110 0 12 -9 17 -20 10 -29 -18 -24 12 8 48 31 35
-50 129 -115 135 -46 4 -6 -66 47 -83 52 -16 51 -34 -4 -68 -31 -19 -46 -21
-52 -5 -4 13 -21 23 -38 23 -24 0 -28 14 -19 60 7 34 4 60 -7 60 -11 0 -20 -8
-20 -18 0 -9 -37 -18 -82 -18 -111 -2 -193 -22 -285 -68 -82 -41 -114 -36 -75
12 21 25 14 30 -42 36 l-66 7 84 28 c47 15 80 35 74 44 -6 9 4 17 22 17 19 0
27 -9 18 -23 -9 -15 -5 -18 10 -8 19 11 19 21 0 43 -21 25 -28 25 -57 -1 -48
-43 -61 -39 -61 20 0 44 7 50 45 39 33 -9 37 -7 15 7 -85 52 -225 40 -190 -17
12 -19 20 -17 34 7 24 44 54 42 47 -2 -3 -25 -27 -37 -82 -41 -55 -5 -69 -12
-48 -25 24 -15 23 -18 -5 -19 -18 0 -39 18 -46 40 -15 48 -42 51 -66 9 -15
-27 -47 -41 -109 -47 -8 -1 -15 -15 -15 -32 0 -33 -23 -35 -100 -10 -47 15
-47 16 15 18 36 1 65 11 65 22 0 10 -29 15 -65 9 -60 -9 -61 -8 -20 14 48 25
63 68 18 51 -15 -6 -39 -2 -55 8 -23 14 -21 17 7 18 19 0 35 10 35 21 0 12 9
16 20 9 11 -7 20 -3 20 9 0 33 -141 21 -240 -22z m-110 -177 c-7 -11 5 -20 26
-20 123 0 84 -90 -46 -105 -44 -5 -64 -5 -45 -1 19 5 35 17 35 26 0 10 25 22
55 27 30 5 3 8 -60 5 -120 -5 -127 -2 -95 48 15 24 26 25 58 6 31 -20 41 -19
50 5 6 16 16 29 23 29 6 0 6 -9 -1 -20z m330 -60 c0 -11 -32 -20 -71 -20 -43
0 -66 8 -59 20 7 11 39 20 71 20 33 0 59 -9 59 -20z m-160 -40 c0 -11 23 -20
51 -20 29 0 46 -9 39 -20 -16 -26 -110 -26 -110 -1 0 11 -16 14 -35 7 -31 -12
-32 -9 -8 20 31 38 63 45 63 14z m1089 -119 c7 -11 25 -14 42 -8 34 13 37 -1
8 -55 -12 -21 -30 -34 -40 -27 -28 17 -23 -39 6 -70 16 -17 17 -22 2 -14 -13
7 -28 2 -33 -12 -5 -14 -17 6 -27 43 -11 42 -33 70 -54 74 -42 6 -173 66 -173
79 0 18 258 8 269 -10z m-629 -167 c0 -37 -42 -74 -84 -74 -51 0 -45 58 9 79
63 26 75 25 75 -5z m140 -28 c0 -40 -108 -26 -116 16 -4 24 8 29 55 22 36 -5
61 -21 61 -38z m-595 -218 c37 -14 46 -39 18 -56 -9 -6 -37 13 -62 41 -25 28
-33 46 -18 39 15 -6 43 -18 62 -24z m455 -168 c0 -11 -34 -20 -75 -20 -56 1
-67 6 -45 20 39 25 120 25 120 0z"/>
<path d="M6098 7443 c29 -53 61 -72 84 -49 10 10 -7 32 -44 54 -61 36 -62 36
-40 -5z"/>
<path d="M7590 7302 c38 -18 37 -19 -8 -21 -27 0 -43 -7 -36 -13 20 -21 178
-12 201 11 15 15 9 21 -20 21 -23 0 -72 5 -109 10 -53 8 -59 7 -28 -8z"/>
<path d="M5601 7235 c7 -51 -2 -74 -44 -113 -23 -22 -37 -53 -31 -70 7 -16 1
-34 -12 -39 -13 -5 -3 -11 23 -11 34 -2 44 6 36 28 -13 33 42 70 102 70 22 0
49 22 61 50 24 51 -17 77 -46 30 -7 -11 -26 -20 -44 -20 -25 0 -26 6 -7 29 25
30 13 71 -21 71 -11 0 -18 -11 -17 -25z"/>
<path d="M6590 7230 c-11 -4 -45 -12 -76 -19 -30 -7 -104 -61 -165 -121 -113
-113 -130 -137 -79 -117 16 6 25 19 19 29 -6 10 -2 18 10 18 11 0 21 -10 21
-23 0 -12 45 20 101 72 75 70 114 93 155 90 30 -3 70 2 91 11 139 59 793 -68
793 -155 0 -8 18 -15 40 -15 22 0 40 -9 40 -20 0 -34 -49 -23 -243 54 -347
138 -726 107 -920 -75 -125 -117 -116 -140 56 -147 116 -4 167 -19 167 -49 0
-8 -46 -13 -101 -12 -111 4 -111 3 22 -85 255 -167 867 -83 829 113 -5 27 3
34 29 27 24 -6 39 5 47 35 10 39 21 43 85 33 58 -10 70 -6 61 17 -7 19 2 29
29 29 42 0 56 40 14 41 -17 0 -15 8 6 25 52 41 25 90 -49 90 -37 0 -94 14
-128 32 -95 49 -293 88 -514 102 -110 6 -227 15 -260 19 -33 4 -69 5 -80 1z
m286 -195 c5 -24 -6 -35 -35 -35 -28 0 -41 13 -41 41 0 52 66 46 76 -6z m-156
-54 c53 -199 318 -215 409 -24 31 63 35 66 68 35 20 -17 47 -32 60 -32 81 0
-24 -112 -147 -156 -52 -18 -54 -21 -14 -22 59 -2 196 68 221 113 11 19 27 27
36 18 10 -9 -4 -34 -30 -55 -26 -21 -40 -38 -30 -39 49 -2 -211 -79 -267 -79
-36 0 -66 -9 -66 -20 0 -29 -60 -24 -62 5 -1 20 -3 20 -11 0 -12 -29 -67 -34
-67 -6 0 11 -15 14 -32 7 -25 -9 -30 -3 -21 26 14 42 -252 138 -376 134 -41
-1 -46 2 -16 8 25 5 45 20 45 34 0 34 176 113 188 84 6 -13 18 -9 32 13 34 54
57 42 80 -44z m320 61 c0 -17 -47 -42 -79 -42 -9 0 -22 14 -28 30 -9 23 3 30
48 30 32 0 59 -8 59 -18z m-305 -287 c-12 -37 -88 -42 -102 -6 -9 24 2 31 49
31 40 0 58 -9 53 -25z m285 -105 c-12 -24 -122 -15 -150 13 -13 13 11 17 70
13 52 -3 86 -15 80 -26z"/>
<path d="M6120 7002 c0 -10 -24 -24 -52 -31 -97 -24 -116 -60 -86 -161 18 -59
33 -83 46 -70 28 28 52 25 52 -5 0 -14 18 -37 40 -50 24 -15 40 -17 40 -5 0
29 55 25 66 -5 10 -28 54 69 54 119 0 25 -6 26 -30 6 -16 -14 -30 -37 -30 -52
0 -53 -32 -27 -59 47 -15 41 -36 81 -48 89 -14 9 -10 26 13 51 38 42 45 85 14
85 -11 0 -20 -8 -20 -18z"/>
<path d="M7965 6727 c-15 -6 -25 -50 -25 -113 0 -130 40 -102 46 33 2 51 4 92
4 91 0 0 -11 -6 -25 -11z"/>
<path d="M6080 6615 c0 -15 11 -39 25 -54 20 -21 20 -24 0 -13 -14 8 -25 4
-25 -8 0 -12 -9 -17 -20 -10 -11 7 -20 -2 -20 -19 0 -17 9 -31 19 -31 11 0 10
-24 -2 -61 -19 -54 -16 -66 21 -92 49 -34 23 -119 -30 -99 -22 9 -21 -1 6 -38
20 -27 43 -49 51 -49 8 -1 15 -14 15 -31 0 -16 9 -30 20 -30 36 0 21 -43 -18
-54 -47 -12 -71 -106 -27 -106 16 0 33 18 39 40 7 25 26 39 53 38 34 -2 36 -5
8 -12 -47 -12 -44 -32 10 -57 43 -20 45 -17 38 67 -7 88 -7 88 33 51 22 -20
72 -64 112 -97 40 -33 72 -75 72 -95 0 -19 9 -35 20 -35 27 0 10 122 -21 140
-13 9 -19 30 -13 48 9 23 1 32 -28 32 -22 0 -35 9 -28 20 7 11 -4 20 -24 20
-20 0 -48 19 -63 43 -24 38 -23 41 7 30 38 -15 34 139 -4 164 -10 7 -25 29
-32 48 -7 19 -22 35 -33 35 -25 0 -25 4 -3 -74 15 -53 13 -61 -12 -52 -16 7
-38 -1 -48 -16 -11 -18 -17 12 -18 86 0 64 -10 120 -23 128 -16 10 -12 22 12
40 19 14 29 35 22 47 -7 11 -4 21 8 21 11 0 21 10 21 21 0 12 -16 19 -35 16
-19 -3 -46 1 -60 10 -15 9 -25 5 -25 -12z"/>
<path d="M5549 6565 c-19 -43 -12 -91 16 -108 31 -19 2 -77 -39 -77 -24 1 -28
6 -12 16 13 8 17 26 8 40 -12 20 -21 19 -41 -5 -14 -17 -21 -31 -15 -31 7 0
-1 -24 -16 -54 -18 -34 -24 -84 -17 -135 24 -178 -81 -210 -138 -41 -26 80
-31 86 -23 29 8 -52 0 -84 -32 -124 -23 -30 -38 -62 -32 -72 6 -10 -7 -34 -28
-53 -22 -20 -40 -52 -40 -72 0 -20 -9 -41 -20 -48 -11 -7 -20 -43 -20 -80 0
-37 -8 -73 -18 -79 -11 -7 -11 -34 -1 -66 10 -30 23 -80 29 -110 15 -77 121
-190 192 -205 33 -8 65 -26 71 -42 8 -20 21 -22 49 -7 31 16 38 13 39 -15 2
-32 4 -31 19 4 26 60 25 60 -48 89 -67 26 -76 47 -45 96 38 61 293 -6 293 -77
0 -21 9 -39 20 -40 11 -2 28 -4 38 -5 10 -2 25 -10 34 -18 22 -23 88 -18 88 6
0 12 -8 16 -18 10 -27 -16 -82 9 -82 38 0 61 -203 231 -277 231 -82 0 -203
-81 -203 -136 0 -41 -5 -45 -30 -24 -16 14 -30 41 -30 61 0 21 -13 44 -29 53
-63 36 -42 247 35 351 27 36 45 79 40 95 -6 22 -1 21 20 -5 37 -46 54 -44 54
5 0 22 -10 40 -21 40 -12 0 -15 10 -7 23 9 15 27 5 53 -30 30 -42 55 -53 117
-53 75 0 105 26 53 47 -20 8 -20 10 0 11 19 2 18 14 -6 51 -19 29 -27 66 -19
90 18 57 53 51 42 -7 -9 -49 35 -89 58 -52 13 22 -8 121 -33 153 -11 14 -7 26
11 34 60 22 70 79 30 162 -43 89 -45 98 -20 82 10 -6 14 7 8 29 -15 56 -39 66
-57 25z"/>
<path d="M5640 6482 c0 -33 9 -65 20 -72 12 -7 20 13 20 48 0 33 -9 65 -20 72
-12 7 -20 -13 -20 -48z"/>
<path d="M5220 6391 c0 -64 29 -109 54 -84 17 17 -14 153 -35 153 -10 0 -19
-31 -19 -69z"/>
<path d="M5655 6249 c-37 -49 -46 -89 -20 -89 17 0 74 118 62 129 -4 4 -23
-14 -42 -40z"/>
<path d="M7899 6279 c-1 -5 -6 -29 -10 -54 -5 -25 0 -45 12 -45 32 0 47 60 22
85 -13 13 -24 19 -24 14z"/>
<path d="M3554 6232 c-14 -36 5 -112 28 -112 10 0 18 14 18 30 0 36 23 39 56
6 19 -19 24 -19 24 0 0 13 -8 24 -18 24 -9 0 -22 18 -28 40 -12 46 -64 54 -80
12z"/>
<path d="M7671 6125 c4 -36 -2 -65 -12 -65 -10 0 -12 -15 -5 -34 11 -27 15
-28 23 -5 5 16 19 36 31 44 16 11 16 19 -1 30 -13 8 -27 33 -32 55 -6 22 -7
11 -4 -25z"/>
<path d="M3702 6025 c-1 -14 -16 -25 -33 -25 -17 0 -26 -8 -20 -19 6 -10 2
-24 -9 -31 -11 -7 -16 -21 -10 -30 6 -10 -5 -27 -25 -38 -33 -19 8 -79 57 -81
16 -1 58 94 58 131 0 22 12 27 40 18 28 -9 40 -4 40 19 0 17 -17 31 -38 31
-21 0 -43 11 -49 25 -8 20 -10 20 -11 0z"/>
<path d="M7850 5823 c8 -27 7 -54 -3 -60 -38 -28 -66 -101 -44 -115 45 -28 98
160 56 200 -18 17 -20 11 -9 -25z"/>
<path d="M5473 5764 c-4 -8 -1 -32 8 -54 9 -22 17 -34 18 -26 0 8 28 -12 62
-45 72 -70 62 -69 107 -16 31 36 32 41 4 31 -17 -7 -32 -5 -32 4 0 10 -27 28
-60 42 -33 14 -55 32 -50 40 5 9 -3 21 -19 27 -17 6 -33 5 -38 -3z"/>
<path d="M3740 5695 l-25 -65 -15 50 c-10 30 -17 37 -18 17 -3 -58 20 -95 52
-83 25 10 27 5 8 -30 -34 -64 -26 -75 17 -25 32 37 35 52 15 83 -18 30 -18 47
1 78 14 22 17 40 7 40 -10 0 -29 -29 -42 -65z"/>
<path d="M7882 5695 c3 -14 -5 -47 -16 -75 -24 -56 -24 -141 -1 -140 8 0 24 0
35 0 11 0 20 10 20 21 0 12 -9 16 -20 9 -28 -17 -25 4 9 56 29 46 21 154 -12
154 -10 0 -17 -11 -15 -25z"/>
<path d="M6517 5685 c-1 -8 -4 -36 -7 -61 -9 -86 -41 -95 -148 -45 -63 29
-116 42 -148 34 -49 -13 -234 -211 -234 -251 0 -40 41 -22 64 28 12 28 28 51
34 51 72 9 120 19 160 34 42 16 149 -42 119 -63 -4 -3 -37 -23 -74 -46 -44
-26 -59 -46 -44 -55 89 -56 321 177 321 322 0 56 -35 99 -43 52z"/>
<path d="M3871 5561 c-8 -12 4 -21 28 -21 22 0 41 -9 41 -20 0 -11 -11 -20
-25 -20 -17 -1 -16 -7 4 -19 19 -12 39 -11 55 3 35 29 33 49 -9 64 -19 6 -45
17 -58 23 -13 6 -29 2 -36 -10z"/>
<path d="M3800 5533 c0 -18 -8 -33 -18 -33 -10 0 -23 -13 -29 -30 -7 -18 0
-30 17 -30 30 0 64 92 42 114 -6 7 -12 -2 -12 -21z"/>
<path d="M5841 5535 c-1 -19 -10 -35 -21 -35 -11 0 -20 -9 -20 -20 0 -11 14
-20 31 -20 17 0 26 -9 19 -20 -7 -11 2 -20 19 -20 38 0 38 0 2 83 -17 37 -30
52 -30 32z"/>
<path d="M6860 5492 c0 -18 8 -32 18 -32 10 0 33 -5 50 -12 21 -8 32 -1 32 20
0 18 -8 32 -18 32 -10 0 -33 5 -50 12 -21 8 -32 1 -32 -20z"/>
<path d="M3900 5369 c0 -6 23 -33 52 -59 31 -28 46 -58 37 -72 -10 -15 -7 -19
8 -10 38 24 27 95 -17 106 -22 6 -40 19 -40 28 0 10 -9 18 -20 18 -11 0 -20
-5 -20 -11z"/>
<path d="M7092 5303 c-7 -10 3 -24 20 -31 24 -9 29 -27 20 -67 -10 -41 -8 -47
7 -25 11 17 21 45 21 63 0 40 -52 86 -68 60z"/>
<path d="M3868 5217 c7 -37 2 -76 -12 -95 -14 -18 -17 -26 -8 -18 9 8 30 1 47
-16 35 -35 60 -21 29 17 -14 17 -16 52 -5 101 15 66 13 74 -24 74 -34 0 -38
-9 -27 -63z"/>
<path d="M5500 5176 c-14 -30 -35 -49 -46 -42 -11 7 -14 2 -6 -11 8 -12 5 -39
-6 -58 -19 -32 -21 -32 -23 5 l-2 40 -17 -40 c-16 -38 -17 -37 -19 6 0 26 -10
41 -21 34 -19 -12 -17 -92 4 -150 6 -16 19 -65 29 -108 26 -120 69 -118 57 1
-10 95 -10 95 15 33 14 -35 33 -71 43 -80 11 -9 12 -5 4 9 -14 24 20 35 84 26
94 -12 237 160 172 208 -31 23 -31 26 2 38 39 15 -20 93 -69 93 -12 0 -40 11
-62 25 -35 21 -44 19 -63 -14 -22 -39 -23 -39 -37 0 -13 36 -16 35 -39 -15z"/>
<path d="M4068 5168 c7 -17 12 -35 12 -40 0 -4 14 -8 30 -8 36 0 39 23 6 56
-34 34 -62 30 -48 -8z"/>
<path d="M6589 5158 c-15 -24 40 -78 80 -78 14 1 14 6 1 15 -11 8 -20 28 -20
43 0 37 -42 51 -61 20z"/>
<path d="M5251 5069 c-7 -29 -23 -48 -37 -44 -34 12 -73 -45 -72 -105 l1 -50
20 55 c11 30 30 55 41 55 13 0 12 -11 -3 -29 -14 -16 -19 -39 -11 -50 26 -42
-10 -109 -38 -70 -20 28 -23 20 -15 -44 7 -64 12 -70 26 -37 15 33 16 31 10
-15 -8 -56 1 -64 53 -44 19 7 26 28 19 55 -9 36 -6 39 16 19 59 -55 89 -30 93
80 4 91 1 100 -23 70 -25 -34 -27 -34 -37 5 -5 22 -1 40 10 40 12 0 10 14 -5
32 -16 18 -19 37 -8 45 29 20 28 83 -1 83 -14 0 -31 -23 -39 -51z"/>
<path d="M6688 5055 c-8 -14 -7 -18 2 -10 21 19 90 -41 90 -78 0 -15 9 -27 20
-27 29 0 25 15 -24 81 -48 65 -66 72 -88 34z"/>
<path d="M5040 5011 c0 -34 -54 -91 -85 -91 -13 0 -5 13 16 29 38 29 38 30 -6
30 -25 1 -45 -10 -45 -23 0 -26 -136 -156 -162 -156 -8 0 -10 18 -4 39 6 22
19 38 30 35 11 -2 30 14 43 36 13 22 32 47 43 55 12 9 11 15 -4 15 -14 0 -34
-18 -46 -40 -18 -33 -29 -37 -63 -19 -22 12 -46 17 -52 11 -6 -7 0 -12 15 -12
45 0 -62 -100 -161 -150 -99 -51 -153 -103 -130 -125 8 -8 25 -1 38 17 21 28
180 138 200 138 5 0 -26 -67 -68 -150 -73 -143 -84 -191 -27 -115 15 19 27 24
27 11 1 -13 -8 -29 -19 -36 -11 -7 -20 -35 -20 -62 0 -117 -72 -193 -129 -137
-34 35 -43 79 -11 59 11 -7 14 2 7 21 -12 30 -15 31 -31 1 -10 -18 -29 -32
-42 -32 -15 0 -12 8 6 20 26 16 24 23 -10 48 -37 27 -42 25 -66 -20 -29 -55
-15 -96 27 -80 45 17 55 -26 19 -81 -18 -28 -28 -55 -22 -62 6 -6 16 3 23 19
8 23 37 29 120 24 68 -4 109 2 109 15 0 12 18 17 40 11 25 -6 47 2 59 23 10
18 24 26 32 18 8 -8 3 -28 -11 -45 -14 -16 -16 -30 -5 -30 29 0 60 43 76 105
11 44 7 53 -16 44 -24 -9 -23 9 9 102 42 126 90 209 121 209 12 0 12 -10 -2
-26 -63 -77 59 -235 157 -204 74 24 210 -63 223 -143 6 -34 15 -39 51 -26 38
15 41 23 20 66 -16 33 -28 42 -38 26 -12 -17 -15 -17 -16 2 0 14 -13 25 -30
25 -16 0 -30 13 -30 29 0 22 22 26 95 20 52 -4 106 0 120 8 42 26 144 3 131
-29 -13 -34 53 -15 84 25 16 20 38 20 104 2 72 -20 90 -18 122 11 20 19 45 34
56 33 10 0 2 -9 -17 -21 -19 -11 -35 -29 -35 -40 0 -11 11 -14 24 -5 13 8 63
12 110 9 57 -3 90 4 96 21 7 17 51 29 117 31 59 3 133 16 165 29 92 38 145 38
154 1 7 -26 10 -24 12 8 2 44 157 66 183 26 6 -10 42 4 80 29 38 26 83 43 99
38 24 -8 24 -3 -3 25 -23 24 -62 35 -125 33 -50 -1 -122 12 -161 28 -60 25
-68 25 -59 0 15 -38 -116 -74 -214 -58 -42 6 -118 -2 -180 -20 -112 -32 -345
-42 -495 -21 -58 8 -94 4 -110 -12 -18 -20 -13 -23 22 -15 25 6 51 2 58 -10 9
-15 -16 -17 -80 -9 -51 7 -115 5 -142 -6 -65 -24 -453 -39 -439 -17 6 10 4 17
-6 15 -9 -1 -32 -2 -51 0 -40 2 -49 62 -9 62 29 0 103 113 106 164 1 18 17 48
35 66 18 18 33 43 33 55 0 12 15 38 33 59 18 20 28 42 21 48 -6 7 -30 -18 -53
-55 -43 -71 -54 -55 -21 32 12 33 12 51 0 51 -11 0 -20 -13 -20 -29z"/>
<path d="M8060 4862 c0 -10 34 -89 75 -175 140 -294 90 -518 -295 -1317 -837
-1738 -778 -1608 -970 -2132 -96 -260 -343 -1035 -378 -1184 -13 -56 -13 -56
82 -50 82 5 96 13 107 56 7 28 23 48 36 45 13 -3 23 4 23 15 0 11 -9 20 -20
20 -31 0 -24 53 11 89 29 28 29 31 0 31 -43 0 -39 39 4 42 19 2 42 2 50 0 8
-1 15 7 15 18 0 11 -9 20 -20 20 -11 0 -20 10 -20 21 0 13 17 16 40 9 48 -15
51 2 8 45 -30 30 -30 34 0 56 18 13 32 40 32 61 1 44 39 114 40 72 0 -15 10
-20 23 -12 14 9 6 22 -23 38 -38 21 -41 28 -16 42 40 24 66 128 31 129 -14 1
-5 9 18 19 30 12 41 30 34 56 -6 21 5 53 25 73 22 22 27 39 14 48 -36 23 9
109 49 95 29 -10 28 -7 -4 18 -30 23 -33 36 -15 54 13 13 24 40 24 60 0 20 9
36 20 36 11 0 20 15 20 33 0 66 47 187 73 187 15 0 27 9 27 20 0 11 -9 20 -21
20 -11 0 -6 27 12 61 26 50 37 57 60 38 18 -15 29 -16 29 -3 0 11 -11 25 -25
30 -20 7 -19 18 2 54 22 38 22 48 0 62 -21 14 -19 17 7 18 19 0 43 -16 54 -35
10 -19 26 -28 35 -19 9 9 7 22 -4 30 -35 25 -34 104 1 104 19 0 31 15 29 35
-7 64 1 85 30 85 35 0 71 60 71 117 0 22 15 55 33 73 23 23 26 39 11 54 -27
27 11 116 50 116 14 0 42 32 60 70 26 55 42 68 73 58 34 -11 35 -9 11 18 -15
16 -35 26 -43 21 -8 -5 -15 9 -15 31 0 27 10 37 29 30 20 -8 25 0 18 29 -11
41 53 123 95 123 16 0 15 10 -2 30 -21 25 -19 38 11 71 28 31 40 34 54 14 11
-15 14 2 6 47 -26 158 70 122 171 -63 68 -125 478 -556 478 -502 0 12 -79 106
-176 208 -96 102 -197 217 -224 255 -26 39 -82 111 -124 161 -87 105 -98 185
-36 265 23 28 40 59 38 68 -10 58 7 93 22 46 12 -37 17 -41 21 -15 7 55 8 61
48 141 23 49 47 72 64 66 22 -9 23 -3 8 27 -21 39 20 154 46 128 7 -8 3 -25
-10 -40 -17 -21 -13 -27 19 -27 23 0 47 9 54 20 7 11 2 20 -10 20 -12 0 -17 9
-10 20 7 11 3 20 -9 20 -40 0 -21 41 29 60 53 20 59 34 32 77 -13 21 -19 19
-30 -9 -9 -25 -19 -29 -35 -13 -12 12 -15 31 -8 43 18 29 111 28 111 -1 0 -13
5 -19 10 -13 19 18 -13 76 -42 76 -23 0 -24 7 -3 40 23 37 26 37 38 5 16 -40
24 -5 22 100 0 30 7 50 17 44 10 -6 18 -24 18 -39 0 -15 27 -33 60 -40 33 -7
65 -21 71 -32 15 -24 69 -23 69 2 0 11 -18 20 -41 20 -49 0 -75 57 -37 82 20
12 30 6 34 -21 4 -24 17 -35 35 -28 18 7 35 -7 46 -36 10 -26 26 -47 35 -47
10 0 16 -7 13 -15 -8 -24 31 -17 47 8 9 15 20 11 32 -11 13 -23 11 -44 -5 -63
-31 -38 21 -41 58 -4 14 14 24 16 22 5 -12 -62 2 -94 30 -71 22 19 33 15 50
-18 12 -22 32 -41 44 -41 11 0 45 -17 74 -38 29 -21 107 -45 173 -53 194 -24
221 -50 45 -44 l-155 6 8 -51 c5 -27 9 -60 10 -73 1 -13 21 -19 47 -13 99 22
102 25 55 66 l-46 40 44 0 c25 0 39 -9 32 -20 -7 -11 2 -26 19 -32 17 -7 31
-21 31 -31 0 -11 -7 -15 -15 -10 -9 5 -33 -4 -55 -20 -34 -24 -35 -31 -10 -47
16 -10 22 -25 14 -33 -9 -9 -33 -5 -55 9 -57 36 -48 -91 42 -546 48 -248 47
-264 -15 -279 -31 -7 -92 -30 -136 -49 -44 -20 -179 -78 -300 -128 -229 -96
-271 -136 -182 -177 44 -20 70 -13 200 50 82 40 158 73 169 73 11 0 32 12 47
26 14 14 71 48 125 74 146 70 221 149 221 232 0 41 -10 68 -25 68 -14 0 -25 9
-25 20 0 11 10 20 21 20 12 0 15 10 8 22 -8 12 -2 31 13 42 20 14 15 17 -20 9
-33 -8 -41 -4 -27 10 13 13 15 43 4 82 -17 59 -17 59 22 24 34 -30 39 -31 39
-4 0 18 -11 35 -25 40 -18 6 -15 18 10 43 19 19 44 29 55 22 11 -7 20 -3 20 9
0 27 -54 28 -70 1 -26 -42 -45 -17 -57 73 -10 74 -6 102 22 132 33 37 33 40
-5 68 -39 29 -39 30 8 24 27 -4 52 4 57 18 5 15 -9 25 -33 25 -23 0 -42 9 -42
20 0 11 17 20 39 20 21 0 44 9 51 20 7 11 30 20 52 20 22 0 35 -9 28 -20 -30
-48 -25 -92 11 -95 24 -1 33 7 26 26 -27 70 228 -2 278 -78 10 -17 14 -16 15
2 0 14 23 25 50 25 28 0 50 -8 50 -18 0 -10 16 -16 35 -15 19 2 33 -8 30 -21
-3 -14 8 -20 25 -13 21 8 27 2 19 -19 -16 -41 26 -63 62 -33 24 19 29 17 29
-14 0 -46 73 -98 86 -61 7 18 18 18 47 2 21 -12 66 -18 100 -13 34 5 83 -2
107 -15 35 -19 48 -19 60 0 11 18 20 16 34 -9 11 -19 28 -33 37 -31 10 2 21
-7 26 -20 4 -12 -5 -21 -20 -19 -67 9 -97 -3 -97 -41 0 -22 10 -40 22 -40 12
0 17 14 11 30 -7 17 -3 30 8 30 10 0 19 -37 19 -81 0 -51 8 -77 21 -69 12 8
15 42 7 82 -11 62 -8 68 35 66 34 -2 37 -5 12 -12 -64 -17 -36 -46 44 -46 58
0 80 9 87 35 9 33 9 33 12 0 2 -39 62 -49 63 -10 0 14 17 5 38 -20 21 -25 54
-45 74 -44 35 0 35 1 2 21 -58 34 -40 49 49 41 77 -7 80 -10 46 -35 -46 -34
37 -42 89 -9 16 10 39 12 50 5 12 -8 35 -15 51 -16 17 0 59 -13 95 -26 80 -32
89 -81 12 -66 -37 7 -49 3 -39 -13 17 -27 102 -16 144 18 22 19 28 17 28 -10
0 -19 11 -30 25 -25 14 5 23 19 20 32 -8 34 29 26 43 -10 9 -23 31 -30 80 -24
46 5 65 0 58 -16 -16 -43 25 -46 112 -7 99 45 164 53 127 16 -16 -16 -17 -35
-3 -60 21 -39 11 -43 -102 -40 l-50 1 50 -15 c62 -19 120 -6 134 30 14 38 41
34 52 -8 5 -19 10 17 12 81 2 135 -6 141 -278 204 -82 19 -218 56 -302 82 -83
25 -263 65 -400 87 -394 65 -457 80 -658 161 -216 86 -717 302 -940 405 -82
38 -208 90 -280 116 -143 52 -520 407 -711 669 -48 66 -106 144 -128 173 -45
59 -241 188 -241 159z"/>
<path d="M5652 4783 c-14 -22 131 -101 163 -89 16 6 21 -2 13 -22 -20 -51 31
-37 55 16 13 30 34 44 55 38 19 -5 56 10 83 32 l49 41 -64 0 c-35 1 -70 -9
-77 -21 -7 -12 -33 -16 -56 -8 -75 22 -210 31 -221 13z"/>
<path d="M7558 4731 c35 -77 62 -91 62 -34 0 33 -57 103 -84 103 -6 0 4 -31
22 -69z"/>
<path d="M7120 4501 c0 -26 -10 -36 -27 -29 -15 6 -33 -3 -39 -19 -9 -24 0
-25 58 -7 69 21 99 94 38 94 -17 0 -30 -18 -30 -39z"/>
<path d="M6360 4421 c0 -11 -13 -21 -30 -21 -20 0 -30 -20 -30 -60 0 -40 10
-60 30 -60 17 0 30 10 30 22 0 13 23 19 56 14 74 -11 118 32 77 74 -39 39 -52
38 -87 -5 -27 -32 -28 -32 -19 -1 6 19 3 40 -8 47 -10 6 -19 2 -19 -10z"/>
<path d="M5425 4332 c-14 -29 -45 -61 -70 -70 -42 -16 -40 -19 35 -51 166 -72
161 -71 166 -19 2 26 -5 48 -16 48 -11 0 -20 14 -20 30 0 17 -10 28 -23 25
-13 -3 -29 17 -36 43 l-12 48 -24 -54z"/>
<path d="M6791 4218 c31 -60 31 -61 -11 -48 -40 13 -41 10 -19 -32 l24 -46 38
46 c41 51 47 82 17 82 -11 0 -20 14 -20 30 0 17 -14 30 -31 30 -27 0 -26 -7 2
-62z"/>
<path d="M7086 4241 c7 -45 34 -80 34 -45 0 13 14 18 30 11 41 -15 38 13 -5
45 -49 38 -66 34 -59 -11z"/>
<path d="M6470 4234 c-96 -33 -111 -60 -57 -100 26 -20 47 -26 47 -15 0 12 11
21 25 21 33 0 83 80 62 100 -10 8 -44 6 -77 -6z"/>
<path d="M5040 4190 c0 -17 18 -30 40 -30 22 0 40 13 40 30 0 17 -18 30 -40
30 -22 0 -40 -13 -40 -30z"/>
<path d="M4662 4139 c-37 -33 -58 -59 -46 -59 26 0 134 97 122 109 -5 5 -39
-18 -76 -50z"/>
<path d="M6160 4120 c-16 -11 -59 -20 -94 -20 -35 0 -69 -9 -75 -19 -7 -11
-23 -15 -37 -11 -13 5 -136 13 -274 18 -137 5 -275 15 -305 23 -46 11 -53 8
-43 -19 7 -17 21 -32 32 -32 12 0 16 -18 10 -39 -15 -59 34 -91 75 -49 46 46
212 -42 179 -94 -4 -8 15 -18 43 -23 27 -5 55 -2 61 8 6 9 31 17 57 17 25 0
58 14 72 31 14 18 43 27 63 22 20 -5 31 -1 25 9 -6 10 -2 18 10 18 11 0 21
-22 21 -50 0 -27 10 -50 21 -50 13 0 16 17 9 40 -16 49 4 51 58 5 23 -19 35
-27 27 -17 -17 21 55 89 124 115 56 22 201 3 201 -26 0 -11 9 -14 21 -6 14 8
14 21 -2 41 -13 15 -33 22 -45 14 -13 -8 -16 0 -8 21 32 83 -130 135 -226 73z"/>
<path d="M6520 4080 c0 -38 -5 -41 -30 -20 -37 31 -38 3 -2 -45 32 -43 55 -46
39 -5 -7 19 1 30 21 30 40 0 41 27 2 60 -25 21 -30 18 -30 -20z"/>
<path d="M6604 4060 c2 -56 60 -103 91 -72 6 7 -3 12 -22 12 -18 0 -32 7 -31
15 2 8 2 35 0 60 -3 68 -40 54 -38 -15z"/>
<path d="M8388 3886 c4 -30 17 -58 31 -62 17 -6 21 4 12 34 -11 32 -7 39 18
30 17 -7 31 -3 31 8 0 19 -45 44 -80 44 -10 0 -15 -24 -12 -54z"/>
<path d="M6500 3751 c0 -4 16 -24 35 -43 19 -19 36 -40 37 -47 10 -70 58 -136
62 -86 2 19 7 60 12 90 7 48 3 53 -36 43 -30 -7 -49 0 -57 21 -10 27 -53 45
-53 22z"/>
<path d="M5980 3711 c0 -4 9 -31 19 -60 27 -70 7 -116 -44 -99 -29 9 -36 5
-24 -13 10 -16 7 -20 -7 -11 -12 7 -17 26 -11 43 6 16 19 24 28 19 9 -6 22 -2
29 10 7 11 -2 20 -20 20 -24 0 -29 12 -20 45 12 44 11 44 -19 6 -34 -43 -42
-202 -11 -221 11 -7 15 -34 8 -61 -8 -30 -4 -49 10 -49 22 0 31 38 26 104 -2
23 7 31 26 23 17 -6 30 -26 30 -44 0 -18 6 -55 14 -83 12 -45 10 -47 -22 -22
-30 25 -35 24 -45 -15 -10 -35 -18 -39 -40 -21 -22 19 -25 17 -16 -7 6 -17 2
-37 -10 -44 -26 -17 -28 -71 -2 -71 11 0 14 15 7 33 -9 23 -5 29 11 19 14 -9
39 3 60 30 l36 44 34 -47 c18 -27 33 -59 33 -73 0 -15 9 -26 19 -26 10 0 31
-24 45 -54 14 -29 39 -57 54 -62 19 -6 23 0 12 18 -12 22 -10 23 10 4 16 -14
19 -37 9 -60 -22 -50 -24 -59 -26 -117 -2 -30 -12 -46 -24 -38 -11 7 -15 30
-8 51 9 28 2 38 -25 38 -40 0 -106 94 -106 151 0 28 5 29 30 9 17 -14 30 -16
30 -5 0 34 -55 70 -69 46 -17 -27 -71 -27 -71 -1 0 11 14 20 30 20 17 0 30 18
30 40 0 66 -72 21 -87 -53 -4 -21 -12 -59 -19 -87 -44 -190 -28 -234 65 -176
33 21 47 17 86 -20 59 -55 146 -58 174 -5 12 21 41 41 66 45 24 3 48 23 52 43
4 21 -1 33 -11 27 -10 -6 -30 8 -45 32 -25 40 -25 42 6 16 30 -24 32 -23 21 5
-7 18 -2 33 10 33 12 0 23 -16 24 -35 1 -22 5 -25 11 -9 6 14 0 38 -12 53 -16
19 -17 41 -5 65 23 45 -38 156 -68 126 -13 -13 -19 45 -17 161 1 99 -5 169
-13 155 -9 -13 -11 -32 -5 -41 6 -9 -12 -12 -39 -7 -47 8 -48 6 -32 -65 9 -40
17 -81 18 -90 0 -10 15 -12 33 -5 27 11 31 2 21 -57 -8 -48 -2 -80 17 -99 33
-33 39 -112 9 -112 -11 0 -20 13 -20 29 0 15 -18 34 -40 41 -22 7 -40 21 -40
31 0 11 -11 19 -25 19 -25 0 -27 10 -44 187 -5 53 -17 107 -26 120 -10 12 -20
59 -23 103 -3 44 -10 87 -15 95 -10 16 -47 21 -47 6z"/>
<path d="M6506 3616 c8 -54 -19 -67 -53 -26 -9 12 -13 8 -8 -10 5 -16 20 -30
34 -30 14 0 41 -22 59 -49 18 -29 22 -43 7 -34 -16 10 -25 4 -25 -14 0 -20 13
-26 42 -18 37 9 41 5 28 -35 -10 -31 -7 -41 8 -31 34 21 27 54 -39 182 -40 80
-58 101 -53 65z"/>
<path d="M5246 3560 c-6 -22 -19 -35 -28 -29 -10 6 -18 -7 -18 -30 0 -30 11
-39 45 -36 53 6 74 30 75 84 0 38 0 38 -29 0 -28 -38 -29 -37 -18 6 7 25 5 45
-3 45 -7 0 -18 -18 -24 -40z"/>
<path d="M6280 3574 c0 -17 9 -37 20 -44 11 -7 20 -26 20 -42 0 -19 -9 -25
-25 -15 -17 10 -16 3 3 -20 15 -19 32 -30 37 -24 41 40 62 -53 26 -116 -32
-57 -34 -74 -12 -92 34 -28 53 15 36 80 -6 26 -3 40 8 34 32 -21 27 67 -8 122
-69 109 -105 150 -105 117z"/>
<path d="M5704 3498 c-17 -67 -15 -75 18 -72 21 1 38 15 38 30 0 16 17 24 43
20 24 -3 47 5 52 19 4 14 -2 25 -15 25 -12 0 -17 8 -11 18 6 10 -16 21 -48 26
-53 8 -60 2 -77 -66z"/>
<path d="M5556 3543 c-58 -14 -53 -38 15 -76 37 -20 41 -17 40 35 -1 32 -1 57
-1 56 0 -2 -25 -8 -54 -15z"/>
<path d="M6478 3366 c-1 -9 -1 -36 1 -61 3 -29 -7 -45 -28 -45 -17 0 -31 -10
-31 -22 0 -12 -15 -53 -33 -91 -18 -37 -27 -74 -21 -80 22 -22 50 14 63 83 7
39 21 66 30 61 9 -6 25 25 37 69 11 47 12 85 2 91 -10 6 -19 4 -20 -5z"/>
<path d="M3271 3081 c-114 -187 -114 -264 -1 -158 33 31 66 57 74 57 7 0 13
25 12 56 -2 50 -63 82 -85 45z"/>
<path d="M6100 3001 c0 -36 33 -74 51 -57 13 14 -15 96 -33 96 -10 0 -18 -17
-18 -39z"/>
<path d="M6379 2979 c-16 -31 -17 -56 -3 -86 12 -24 26 -56 31 -73 7 -20 10
-17 11 11 1 23 12 51 24 63 27 27 16 110 -16 121 -13 4 -34 -12 -47 -36z"/>
<path d="M3418 2925 c-2 -8 -1 -22 0 -31 2 -10 -6 -11 -18 -4 -29 18 -225
-173 -202 -196 10 -10 53 20 103 75 48 52 97 88 112 82 18 -6 27 7 27 40 0 44
-17 70 -22 34z"/>
<path d="M4726 2725 c-2 -41 5 -80 16 -86 24 -15 80 -219 67 -241 -5 -8 12
-39 39 -67 26 -29 53 -83 60 -120 7 -37 26 -78 43 -91 16 -14 29 -38 29 -53 0
-16 18 -65 41 -108 22 -44 35 -90 28 -101 -7 -12 7 -43 32 -69 26 -28 35 -49
21 -49 -13 0 -19 -9 -13 -19 7 -11 25 -14 42 -8 16 6 29 1 29 -11 0 -12 -9
-22 -20 -22 -11 0 -20 -13 -20 -30 0 -16 16 -30 35 -30 30 -1 31 -3 5 -20 -25
-16 -22 -19 12 -20 35 0 41 -9 33 -52 -8 -41 -20 -50 -56 -43 -30 6 -42 1 -36
-16 6 -14 28 -20 53 -13 62 16 141 95 128 127 -7 18 -11 15 -12 -9 -1 -20 -11
-31 -22 -24 -12 7 -16 21 -10 30 6 9 2 23 -8 29 -11 6 -15 34 -10 61 5 28 1
50 -8 50 -10 0 -28 23 -40 50 -21 45 -19 50 21 50 44 1 44 1 -5 26 -29 15 -48
40 -44 60 3 19 -4 34 -15 34 -12 0 -21 17 -21 39 0 21 -10 45 -22 52 -12 8
-18 41 -13 73 5 38 -1 63 -18 70 -15 6 -27 23 -27 38 0 15 -13 28 -28 28 -16
0 -40 34 -53 75 -21 65 -216 485 -226 485 -1 0 -5 -34 -7 -75z"/>
<path d="M3317 2722 c20 -12 16 -19 -15 -27 -23 -6 -42 -26 -42 -43 0 -43 24
-40 66 8 44 52 43 80 -1 80 -27 -1 -29 -5 -8 -18z"/>
<path d="M5240 2667 c0 -18 83 -87 104 -87 10 0 12 -10 4 -23 -8 -13 -3 -18
14 -13 15 6 25 25 22 43 -3 18 4 33 16 33 12 0 17 9 10 20 -7 11 -34 15 -61 8
-30 -8 -49 -4 -49 10 0 12 -13 22 -30 22 -16 0 -30 -6 -30 -13z"/>
<path d="M3160 2620 c-16 -10 -31 -26 -32 -34 -1 -9 -8 -30 -15 -47 -8 -18
-16 -58 -19 -90 -6 -85 70 -84 88 1 8 33 14 43 16 22 1 -21 7 -33 14 -27 23
23 -14 93 -43 82 -16 -6 -29 -1 -29 11 0 12 20 22 45 22 33 1 38 5 17 18 -15
10 -21 28 -13 40 16 27 10 27 -29 2z"/>
<path d="M11480 2540 c-22 -22 -40 -53 -40 -68 0 -16 -8 -32 -18 -35 -21 -8
-262 -378 -262 -403 0 -9 -21 -63 -47 -120 -26 -57 -53 -131 -61 -164 -8 -33
-32 -97 -53 -142 -134 -280 -234 -1608 -121 -1608 48 0 45 -24 50 380 2 160
10 301 18 313 8 13 11 70 7 126 -6 84 -1 106 30 122 20 11 36 31 35 45 -1 18
-4 18 -11 -1 -13 -33 -47 -12 -47 28 0 19 11 27 28 21 22 -9 26 5 18 62 -5 41
1 115 14 164 34 134 37 167 15 195 -14 18 -11 37 12 62 18 20 33 47 33 60 0
13 8 39 19 58 10 19 35 78 55 130 20 52 43 95 52 95 9 0 11 9 4 20 -12 19 23
101 51 120 8 6 18 28 22 50 4 22 21 54 37 70 49 49 80 116 80 170 0 28 14 56
30 63 17 6 30 20 30 30 0 10 18 38 40 62 22 23 40 54 40 69 0 14 16 26 35 26
30 1 31 3 5 20 -43 28 -55 25 -100 -20z"/>
<path d="M2968 2482 c-43 -43 -95 -97 -116 -120 -22 -23 -51 -42 -65 -42 -31
0 -36 -32 -9 -49 11 -6 32 2 49 19 20 20 35 23 43 9 8 -12 31 3 56 35 23 31
47 61 53 66 9 8 31 51 76 145 15 31 -11 12 -87 -63z"/>
<path d="M1770 2320 c-7 -11 -4 -20 7 -20 11 0 34 -5 51 -12 21 -8 32 -1 32
20 0 35 -70 45 -90 12z"/>
<path d="M6305 2255 c-2 -25 -22 -60 -44 -78 -59 -48 -53 -81 10 -57 67 26
151 27 111 2 -40 -25 -11 -83 37 -76 22 4 46 12 53 19 7 8 29 5 48 -5 19 -10
42 -12 51 -4 8 8 10 -2 3 -21 -7 -19 -5 -55 5 -80 l17 -45 17 44 c11 29 26 39
43 29 19 -12 15 -27 -16 -63 -22 -25 -40 -62 -40 -81 0 -20 -7 -39 -16 -42 -9
-4 -54 -77 -100 -163 -46 -86 -97 -170 -114 -187 -16 -16 -30 -36 -30 -43 0
-8 -56 -73 -125 -145 -69 -71 -147 -160 -175 -197 -27 -37 -64 -82 -81 -100
-17 -18 -57 -69 -90 -113 -32 -43 -97 -117 -144 -164 -100 -99 -100 -100 -33
-164 l51 -48 -13 78 c-10 59 -7 71 8 49 18 -25 21 -23 22 14 0 24 23 67 50 94
28 28 50 42 50 31 0 -36 55 -19 66 21 6 22 2 40 -9 40 -11 0 -13 10 -6 22 10
16 19 14 32 -5 14 -22 22 -20 38 8 12 19 39 35 60 35 21 0 39 10 39 22 0 13
36 59 80 103 44 44 80 97 80 117 0 21 9 38 20 38 24 0 160 136 160 160 0 9 18
12 40 6 22 -6 40 -1 40 12 0 12 -16 22 -35 23 -33 0 -33 2 -1 26 20 16 27 34
17 45 -10 10 -6 29 11 44 15 14 28 20 28 12 0 -7 15 -1 34 15 23 18 29 19 19
2 -24 -39 36 -30 74 12 18 20 33 47 33 61 0 13 7 20 15 15 8 -5 72 48 142 117
85 85 138 123 159 115 57 -22 7 28 -221 220 -313 264 -462 337 -470 230z m475
-498 c0 -41 -146 -197 -183 -197 -22 0 -21 82 1 118 10 15 28 21 40 13 13 -8
22 1 22 20 0 20 11 29 28 23 17 -7 32 4 38 27 14 53 54 49 54 -4z"/>
<path d="M3991 2240 c8 -16 33 -50 54 -74 23 -25 33 -53 24 -68 -10 -15 -7
-19 8 -10 30 19 30 -13 0 -43 -26 -26 -124 14 -145 60 -6 14 -6 3 2 -25 7 -27
23 -104 36 -170 19 -105 102 -205 89 -107 -10 69 4 83 30 31 16 -30 24 -71 18
-90 -6 -19 -14 -46 -19 -60 -6 -20 -17 -21 -49 -3 -24 13 -37 34 -31 51 6 15
2 28 -9 28 -10 0 -19 -20 -19 -45 1 -64 22 -135 40 -135 9 0 12 18 6 40 -6 22
-1 40 12 40 26 0 29 -78 4 -117 -9 -14 -24 -26 -34 -25 -17 1 -18 -53 -4 -242
3 -42 12 -63 20 -50 10 16 15 11 16 -13 0 -53 64 -153 97 -153 19 0 25 -18 19
-59 -5 -32 -2 -55 6 -50 21 13 78 -12 78 -34 0 -11 -18 -14 -40 -7 -30 10 -37
5 -28 -19 7 -17 29 -31 50 -31 43 0 51 -31 13 -48 -14 -7 0 -7 30 -2 45 9 59
2 72 -33 12 -33 19 -36 27 -14 18 47 -75 221 -187 348 -169 194 -181 253 -87
459 25 55 56 136 70 180 14 44 33 96 42 115 27 51 25 57 -61 186 -83 124 -175
241 -150 189z"/>
<path d="M11715 2247 c-20 -5 -31 -18 -25 -27 5 -9 -9 -11 -33 -5 -34 9 -41 4
-32 -19 7 -17 4 -39 -6 -49 -11 -11 -2 -18 21 -18 22 0 40 5 40 13 0 7 25 8
55 4 43 -7 48 -4 25 12 -37 27 -18 28 47 3 36 -14 53 -12 58 5 6 18 17 17 41
-3 19 -15 47 -22 64 -16 42 16 38 84 -5 87 -19 2 -75 8 -125 13 -49 6 -106 6
-125 0z"/>
<path d="M6082 2015 c-49 -23 -78 -46 -64 -51 31 -10 182 55 182 79 0 25 -20
20 -118 -28z"/>
<path d="M8820 2023 c0 -19 159 -71 174 -56 23 23 -16 47 -61 38 -27 -5 -54 1
-62 13 -16 26 -51 29 -51 5z"/>
<path d="M8513 1977 c-6 -24 -3 -58 7 -75 10 -18 20 -27 21 -22 21 113 -2 195
-28 97z"/>
<path d="M9101 1887 c23 -39 18 -53 -54 -140 -214 -259 -472 -693 -790 -1331
-221 -441 -211 -416 -157 -416 40 0 150 193 146 255 -1 13 7 20 16 14 10 -6
18 0 18 15 1 14 27 80 60 146 33 66 59 127 60 136 0 9 18 35 41 59 22 25 46
65 52 90 6 25 19 45 29 45 10 0 18 18 18 40 0 22 9 40 20 40 11 0 20 12 20 28
0 15 14 38 30 52 17 14 30 41 30 60 0 20 14 41 30 47 17 7 30 30 30 52 0 23 9
41 20 41 11 0 20 17 20 39 0 21 14 52 30 68 17 17 30 35 30 41 0 5 32 62 72
126 40 64 67 100 61 81 -21 -62 4 -37 40 40 20 41 45 85 56 98 67 72 92 114
120 197 38 111 38 121 5 93 -20 -16 -34 -15 -53 2 -21 21 -21 17 0 -18z"/>
<path d="M11905 1827 c-36 -18 -65 -40 -65 -49 0 -10 -17 -18 -39 -18 -21 0
-52 -19 -68 -42 -17 -23 -39 -36 -51 -29 -12 7 -51 -17 -88 -53 -36 -37 -129
-120 -205 -184 -140 -119 -201 -197 -179 -232 12 -19 146 25 169 56 6 8 52 34
101 58 50 24 105 69 124 100 46 78 191 220 236 232 32 8 34 4 14 -28 -13 -21
-31 -38 -41 -38 -9 0 -12 -13 -6 -28 6 -16 -4 -34 -22 -41 -21 -8 -25 -19 -12
-32 26 -26 87 -3 87 33 0 15 11 28 25 29 68 1 140 104 90 127 -20 10 -20 14 0
24 26 12 36 148 10 148 -8 -1 -44 -15 -80 -33z"/>
<path d="M6209 1779 c-7 -12 -26 -17 -43 -10 -16 6 -43 -3 -60 -20 -28 -28
-25 -30 27 -17 103 25 135 41 112 55 -12 8 -28 4 -36 -8z"/>
<path d="M8020 1746 c0 -5 29 -36 65 -70 40 -38 51 -56 28 -49 -20 7 -45 13
-55 13 -10 0 -18 13 -18 29 0 44 -31 54 -35 11 -1 -23 15 -44 39 -51 23 -8
106 -57 183 -110 78 -53 148 -92 157 -86 9 5 27 2 41 -6 14 -9 34 -18 45 -20
11 -2 36 -9 55 -17 19 -8 35 -5 35 6 0 11 -31 25 -69 33 -38 7 -76 23 -83 35
-9 13 -5 17 9 8 13 -8 23 -5 23 7 0 11 -10 21 -22 21 -12 0 -62 27 -111 60
-49 33 -95 60 -103 60 -20 0 -124 98 -124 117 0 9 -13 16 -30 16 -16 0 -30 -3
-30 -7z m240 -198 c55 -39 100 -76 100 -81 0 -12 -76 30 -117 64 -18 16 -51
42 -73 58 -22 16 -33 30 -25 30 8 1 60 -31 115 -71z"/>
<path d="M4825 1640 c-15 -24 -17 -40 -5 -40 11 0 20 -13 20 -30 0 -16 14 -30
30 -30 17 0 30 9 30 20 0 11 -10 20 -22 20 -14 0 -18 19 -10 50 15 60 -9 66
-43 10z"/>
<path d="M4196 1605 c-79 -85 -102 -139 -65 -153 17 -6 26 -3 20 7 -6 10 6 24
28 31 24 7 48 42 60 85 25 93 20 97 -43 30z"/>
<path d="M4945 1646 c-40 -15 -28 -54 24 -79 45 -20 71 -4 71 44 0 17 -72 43
-95 35z"/>
<path d="M3693 1605 c-6 -19 -16 -64 -23 -100 -7 -36 -29 -76 -48 -90 -24 -17
-34 -47 -30 -95 2 -38 -3 -115 -14 -170 -10 -55 -22 -185 -27 -290 -40 -809
-39 -860 24 -860 31 0 35 23 33 205 -3 291 47 1172 70 1255 30 105 44 180 34
180 -5 0 -14 -16 -19 -35z"/>
<path d="M8568 1565 c-27 -43 1 -134 34 -114 16 10 14 19 -5 32 -22 14 -21 23
8 45 19 14 35 37 35 49 0 35 -48 27 -72 -12z"/>
<path d="M8433 1567 c-20 -21 -15 -51 6 -37 11 6 26 -11 33 -39 7 -28 20 -51
30 -51 26 0 22 25 -11 73 -16 23 -24 47 -17 54 7 7 4 13 -7 13 -11 0 -26 -6
-34 -13z"/>
<path d="M4820 1493 c39 -37 120 -62 120 -36 0 26 -14 34 -90 52 -53 12 -56
10 -30 -16z"/>
<path d="M5004 1469 c-18 -21 -19 -29 -2 -29 13 0 35 -16 49 -35 25 -33 27
-33 40 -1 23 61 -45 112 -87 65z"/>
<path d="M11943 1418 c-26 -21 -60 -38 -75 -38 -15 0 -28 -9 -28 -21 0 -13 13
-14 35 -2 19 9 45 14 57 10 26 -10 75 43 65 71 -4 10 -28 2 -54 -20z"/>
<path d="M4865 1347 c-14 -6 -25 -23 -25 -38 0 -17 -13 -24 -35 -16 -30 9 -30
7 -5 -11 40 -29 47 -28 97 15 54 47 35 77 -32 50z"/>
<path d="M11740 1323 c0 -12 -13 -23 -28 -23 -25 0 -121 -42 -332 -147 l-70
-34 67 10 c36 6 95 23 130 38 34 16 92 39 127 52 70 27 140 94 119 114 -7 8
-13 3 -13 -10z"/>
<path d="M5026 1206 c28 -7 31 -16 14 -36 -25 -30 6 -61 40 -40 31 19 -15 90
-56 88 -30 -2 -30 -4 2 -12z"/>
<path d="M8319 1159 c-1 -5 -6 -29 -10 -54 -6 -30 1 -45 20 -45 46 0 59 41 23
76 -17 18 -33 28 -33 23z"/>
<path d="M5275 1072 c-19 -14 -35 -39 -35 -54 1 -18 6 -20 15 -7 8 12 31 28
50 35 19 7 35 22 35 33 0 28 -22 25 -65 -7z"/>
<path d="M11340 978 c24 -17 19 -19 -20 -10 -28 5 -64 1 -80 -10 -23 -16 -20
-18 15 -8 46 13 65 -20 20 -36 -14 -5 -19 -15 -12 -23 8 -8 32 4 55 27 23 23
53 42 67 42 17 1 15 7 -5 20 -41 26 -77 25 -40 -2z"/>
<path d="M11888 963 c6 -10 -14 -14 -44 -9 -50 7 -49 5 16 -30 76 -40 123 -26
81 25 -27 32 -71 44 -53 14z"/>
<path d="M2039 878 c-13 -25 -26 -80 -29 -121 -2 -42 -15 -89 -28 -105 -15
-18 -20 -59 -13 -105 8 -57 7 -67 -8 -37 -13 29 -15 13 -7 -55 7 -55 3 -95 -8
-95 -10 0 -19 -29 -20 -65 -2 -144 -14 -246 -32 -270 -13 -17 -10 -25 9 -25
20 0 42 94 83 355 31 195 65 399 76 453 21 111 13 137 -23 70z"/>
<path d="M11980 760 c0 -22 -10 -40 -21 -40 -12 0 -16 8 -10 19 6 10 3 23 -7
30 -10 6 -31 -16 -45 -49 -17 -37 -37 -56 -54 -50 -18 7 -24 0 -16 -19 7 -19
1 -25 -18 -18 -16 6 -30 -1 -31 -16 -2 -15 -4 -40 -5 -57 -2 -17 -18 -27 -38
-24 -22 4 -35 -7 -36 -30 0 -32 -3 -32 -23 4 -12 22 -24 42 -26 45 -2 3 -19 0
-37 -7 -48 -18 -40 -46 10 -33 31 8 39 4 30 -17 -7 -15 -19 -44 -25 -63 -14
-37 -48 -48 -48 -15 0 11 -9 20 -20 20 -29 0 -24 -59 8 -91 24 -24 33 -21 60
21 51 77 116 130 161 130 27 0 55 24 80 70 20 39 45 70 54 70 9 0 17 14 17 32
0 20 11 28 30 21 23 -9 30 3 30 48 0 32 -4 59 -10 59 -5 0 -10 -18 -10 -40z"/>
<path d="M4884 669 c-4 -89 1 -109 28 -109 25 0 29 12 19 52 -7 28 -3 63 8 77
15 18 11 34 -14 57 -34 30 -36 26 -41 -77z"/>
<path d="M8091 722 c-18 -30 9 -77 50 -88 22 -6 39 -2 39 8 0 10 -9 18 -20 18
-11 0 -20 13 -20 29 0 36 -33 58 -49 33z"/>
<path d="M9660 701 c0 -10 -12 -21 -26 -25 -16 -4 -22 -23 -15 -49 10 -39 14
-37 46 25 19 37 25 68 15 68 -11 0 -20 -8 -20 -19z"/>
<path d="M10480 680 c0 -49 -34 -53 -46 -5 -8 32 -10 32 -12 1 -3 -46 33 -65
69 -35 33 27 39 79 9 79 -11 0 -20 -18 -20 -40z"/>
<path d="M5580 509 c-38 -99 -47 -156 -23 -141 13 8 23 36 23 62 0 26 14 61
30 77 35 35 38 53 10 53 -12 0 -30 -23 -40 -51z"/>
<path d="M2730 382 c0 -54 6 -88 15 -75 19 30 19 173 0 173 -8 0 -15 -44 -15
-98z"/>
<path d="M7927 396 c-7 -46 -32 -102 -55 -125 -23 -23 -38 -39 -34 -37 5 3 19
-3 32 -14 18 -15 31 3 50 70 14 50 33 96 43 102 24 14 22 88 -3 88 -11 0 -26
-38 -33 -84z"/>
<path d="M11952 433 c-45 -46 -97 -207 -72 -223 22 -13 46 24 31 48 -6 9 3 29
19 42 17 14 30 37 30 51 0 14 10 29 22 33 12 4 19 25 15 47 -7 39 -8 39 -45 2z"/>
<path d="M5491 215 c-23 -73 24 -132 59 -75 7 11 -3 20 -23 20 -27 0 -30 5
-11 24 13 13 24 31 24 40 0 26 -41 18 -49 -9z"/>
</g>
</svg>
